<?xml version="1.0" encoding="UTF-8" standalone="no"?>
<!-- Created with Inkscape (http://www.inkscape.org/) -->

<svg
   xmlns:dc="http://purl.org/dc/elements/1.1/"
   xmlns:cc="http://creativecommons.org/ns#"
   xmlns:rdf="http://www.w3.org/1999/02/22-rdf-syntax-ns#"
   xmlns:svg="http://www.w3.org/2000/svg"
   xmlns="http://www.w3.org/2000/svg"
   xmlns:sodipodi="http://sodipodi.sourceforge.net/DTD/sodipodi-0.dtd"
   xmlns:inkscape="http://www.inkscape.org/namespaces/inkscape"
   width="32px"
   height="32px"
   id="svg7363"
   version="1.1"
   inkscape:version="0.48.4 r9939"
   inkscape:export-filename="jj.png"
   inkscape:export-xdpi="158.92999"
   inkscape:export-ydpi="158.92999"
   sodipodi:docname="New document 7">
  <defs
     id="defs7365" />
  <sodipodi:namedview
     id="base"
     pagecolor="#ffffff"
     bordercolor="#666666"
     borderopacity="1.0"
     inkscape:pageopacity="0.0"
     inkscape:pageshadow="2"
     inkscape:zoom="7.9180417"
     inkscape:cx="18.64948"
     inkscape:cy="24.602572"
     inkscape:current-layer="layer1"
     showgrid="true"
     inkscape:grid-bbox="true"
     inkscape:document-units="px" />
  <metadata
     id="metadata7368">
    <rdf:RDF>
      <cc:Work
         rdf:about="">
        <dc:format>image/svg+xml</dc:format>
        <dc:type
           rdf:resource="http://purl.org/dc/dcmitype/StillImage" />
        <dc:title></dc:title>
      </cc:Work>
    </rdf:RDF>
  </metadata>
  <g
     id="layer1"
     inkscape:label="Layer 1"
     inkscape:groupmode="layer">
    <g
       style="display:inline"
       id="layer1-2"
       inkscape:label="Layer 1"
       transform="matrix(0.36846681,0,0,0.36846681,-41.166737,-13.410625)">
      <g
         transform="translate(0,1.4696699)"
         id="g3259">
        <path
           style="fill:#000000"
           d="m 26.257519,154.27429 24.183929,-23.24622 7.84917,-0.007 c 4.317044,-0.004 7.84917,0.13597 7.84917,0.31064 0,0.17466 -7.320311,7.51844 -16.267356,16.31953 -15.238811,14.98978 -16.462448,16.00154 -19.352897,16.00154 -2.622008,0 -3.747557,0.66097 -7.492294,4.39977 -3.383257,3.3779 -4.406752,4.98878 -4.406752,6.9358 l 0,2.53603 -8.273449,-0.002 -8.2734492,-0.002 24.1839282,-23.24623 z m -5.091353,21.21062 c 0,-1.2693 0.48085,-2.03994 1.272838,-2.03994 0.700061,0 1.272839,-0.52261 1.272839,-1.16136 0,-0.63875 0.988572,-2.2911 2.196829,-3.67189 1.713652,-1.95837 2.87752,-2.51054 5.291694,-2.51054 2.829317,0 4.010103,-0.87814 13.761617,-10.23441 10.548559,-10.12101 10.683909,-10.21617 12.215355,-8.58892 1.517902,1.61286 1.454073,1.73892 -3.219483,6.35852 -4.496715,4.4448 -5.848742,6.75297 -3.955586,6.75297 1.076292,0 7.969143,-6.43976 9.170551,-8.56775 0.725814,-1.28559 1.143086,-1.42087 1.966059,-0.63738 0.824957,0.78537 -0.01173,1.99048 -3.977807,5.72942 -3.724947,3.51162 -4.950871,5.21623 -4.745227,6.59813 0.152503,1.0248 -0.152428,2.36115 -0.677624,2.96967 -0.657405,0.76172 -0.677699,1.27116 -0.06514,1.6352 1.206998,0.71733 1.126359,3.95846 -0.128508,5.16514 -1.32885,1.27783 -4.478087,1.25483 -5.586165,-0.0408 -1.341509,-1.56856 -1.088849,-10.97495 0.3251,-12.10337 0.65339,-0.52145 1.187982,-1.55824 1.187982,-2.304 0,-0.74576 2.100184,-3.35038 4.667074,-5.78804 2.566891,-2.43767 4.667075,-4.80656 4.667075,-5.2642 0,-0.45764 -4.873917,3.84428 -10.830925,9.55985 -9.837171,9.43845 -11.109742,10.39192 -13.86971,10.39192 -4.583949,0 -8.234833,4.99225 -4.362512,5.96534 1.117476,0.28082 1.012475,0.39659 -0.424279,0.46782 -1.31074,0.065 -1.909258,0.60624 -1.909258,1.72661 0,1.19677 -0.565706,1.63195 -2.121397,1.63195 -1.697118,0 -2.121397,-0.40799 -2.121397,-2.03994 z m 29.360266,-5.79312 c -0.741185,-1.85732 -3.462646,-1.0268 -3.574436,1.09085 -0.05237,0.99203 0.234019,1.60802 0.636419,1.36887 0.402399,-0.23914 0.731636,-0.0197 0.731636,0.48761 0,0.52696 0.581035,0.36369 1.355256,-0.3808 0.745391,-0.71677 1.128398,-1.87171 0.851125,-2.56653 z m -0.08498,-5.70834 c 0,-1.61229 -2.126056,-2.18736 -3.103587,-0.83948 -0.895272,1.23445 0.125646,2.81393 1.677279,2.59495 0.784469,-0.11071 1.426308,-0.90068 1.426308,-1.75547 z m -15.69834,11.9662 c 0,-0.98478 -0.715631,-1.70774 -1.909257,-1.92882 -1.050092,-0.19449 -0.09546,-0.40363 2.121397,-0.46474 3.068458,-0.0846 4.030655,0.18106 4.030655,1.11284 0,1.03937 2.148513,1.22397 14.245261,1.22397 l 14.245261,0 4.178996,-4.07989 4.178997,-4.07988 9.395035,0 9.395032,0 4.609096,4.48787 4.609105,4.48787 11.97304,0 c 11.67407,0 12.0228,-0.0509 13.96598,-2.03994 1.09613,-1.12197 2.88102,-2.03994 3.96643,-2.03994 1.08542,0 1.97348,-0.36719 1.97348,-0.81598 0,-0.44878 0.95463,-0.81597 2.1214,-0.81597 1.72463,0 2.1214,0.40103 2.1214,2.14423 0,2.03312 -0.17041,2.11802 -3.28854,1.63856 -2.54848,-0.39187 -3.77211,-0.1399 -5.43734,1.11968 -1.94283,1.46955 -3.4373,1.62381 -15.59189,1.60939 l -13.4431,-0.016 -4.467667,-4.06393 -4.467662,-4.06393 -8.099376,0 -8.099377,0 -4.48613,4.07988 -4.48613,4.07988 -16.677047,0 c -15.91106,0 -16.677049,-0.0724 -16.677049,-1.5752 z m 39.081528,-0.93731 c 3.19628,-4.3164 5.619159,-4.31314 4.632583,0.007 -0.505598,2.21329 -0.918168,2.50598 -3.532766,2.50598 l -2.960316,0 1.860499,-2.51251 z m 5.905089,1.08455 c 0.02443,-2.68495 1.316513,-3.58997 4.740455,-3.32037 2.897862,0.22818 3.341141,0.53859 3.576361,2.50439 0.308087,2.57471 -1.12042,3.06387 -1.787209,0.61199 -0.273159,-1.00446 -1.157443,-1.63196 -2.299807,-1.63196 -1.142359,0 -2.026647,0.6275 -2.299807,1.63196 -0.546654,2.01014 -1.947777,2.15823 -1.929993,0.20399 z m 9.855288,-1.10378 c -0.289613,-1.39245 -0.314807,-2.8612 -0.056,-3.2639 0.955443,-1.48658 3.388779,-0.65779 5.037487,1.71576 0.933415,1.34378 2.151894,2.44429 2.707734,2.44558 0.55584,0.002 1.246618,0.36954 1.53506,0.81832 0.325049,0.50575 -1.228671,0.81598 -4.086642,0.81598 -4.478499,0 -4.626225,-0.0728 -5.137651,-2.53174 z m 61.834943,0.89979 c -0.84473,-0.89758 -2.04946,-1.63196 -2.67719,-1.63196 -0.62772,0 -1.14132,-0.55078 -1.14132,-1.22396 0,-2.13711 2.96086,-1.32363 5.93991,1.63195 2.535,2.51504 2.67186,2.85592 1.14653,2.85592 -0.95262,0 -2.42319,-0.73438 -3.26793,-1.63195 z m 22.91109,0.81597 c 0.29765,-0.4631 4.51777,-0.81597 9.75843,-0.81597 5.24066,0 9.46079,0.35287 9.75843,0.81597 0.33861,0.52684 -3.11926,0.81598 -9.75843,0.81598 -6.63917,0 -10.09703,-0.28914 -9.75843,-0.81598 z m 21.98191,-0.9127 c -1.54671,-1.65406 -2.19338,-1.71291 -14.98129,-1.36328 l -13.36481,0.3654 0,-1.90062 c 0,-1.56783 0.44576,-1.90063 2.54568,-1.90063 1.40012,0 2.54568,0.36719 2.54568,0.81597 0,0.50313 4.3313,0.81598 11.29678,0.81598 l 11.29679,0 2.43891,2.44793 c 1.71588,1.72222 2.0535,2.44793 1.13884,2.44793 -0.71505,0 -2.02751,-0.77791 -2.91658,-1.72868 z m 3.05058,-1.94321 -3.74759,-3.6719 -10.85459,0 c -9.08281,0 -10.85458,-0.19978 -10.85458,-1.22396 0,-1.05292 2.76076,-1.22397 19.75555,-1.22397 l 19.75556,0 5.03823,4.89586 5.03822,4.89586 -10.19161,0 -10.1916,0 -3.74759,-3.67189 z m 20.76694,-2.09737 -5.91716,-5.76925 -23.12357,0.26141 -23.12358,0.26142 3.4e-4,-1.83595 c 2.8e-4,-1.49588 0.47188,-1.83595 2.54603,-1.83595 1.40012,0 2.54568,0.36719 2.54568,0.81598 0,0.52203 7.57295,0.81598 21.02174,0.81598 l 21.02174,0 6.74865,6.52781 c 3.71176,3.59029 6.1746,6.52781 5.47297,6.52781 -0.70163,0 -3.93841,-2.59617 -7.19284,-5.76926 z m 2.60839,-2.35193 c -7.77612,-7.50571 -8.69046,-8.13958 -12.06436,-8.36376 -3.54688,-0.23568 -4.30161,-0.8673 -26.57001,-22.23634 -12.60569,-12.09658 -22.61676,-22.28483 -22.24683,-22.64056 0.36994,-0.35573 10.9554,9.26608 23.52324,21.38179 22.37445,21.56953 22.9221,22.02858 26.28027,22.02858 3.23534,0 3.95681,0.50851 12.73485,8.97574 5.11786,4.93666 8.73177,8.97574 8.03091,8.97574 -0.70085,0 -5.06049,-3.65454 -9.68807,-8.12119 z m 2.93,-2.07852 c -9.54337,-9.19901 -10.87474,-10.1997 -13.57021,-10.1997 -2.77831,0 -4.56403,-1.51565 -25.36707,-21.5306 -12.30811,-11.84184 -22.15415,-21.87948 -21.88009,-22.30589 0.27405,-0.4264 10.33725,8.71159 22.36266,20.30664 20.36196,19.63326 22.07074,21.08192 24.86742,21.08192 2.73072,0 4.07825,1.03591 14.86013,11.42367 6.52139,6.28302 11.28369,11.42367 10.58288,11.42367 -0.70081,0 -6.03589,-4.58987 -11.85572,-10.19971 z m 7.63703,-2.44793 -13.13213,-12.64763 -4.68346,0 -4.68346,0 -21.94069,-21.10993 c -12.06738,-11.61047 -21.57763,-21.3257 -21.13389,-21.58942 0.44374,-0.26371 10.50077,8.86857 22.34896,20.29396 l 21.54216,20.77344 4.69885,0 4.69884,0 13.98194,13.46361 c 7.69006,7.40498 13.40887,13.46361 12.70846,13.46361 -0.7004,0 -7.18291,-5.69144 -14.40558,-12.64764 z m 3.62592,-1.40325 c -14.4364,-13.88207 -14.66307,-14.0561 -18.86534,-14.48359 l -4.25339,-0.43268 -21.61458,-20.73686 c -11.88803,-11.40527 -21.39038,-21.08572 -21.11633,-21.5121 0.27404,-0.42638 10.28428,8.62982 22.24499,20.12488 l 21.74672,20.90011 3.82111,0 3.82111,0 15.68114,15.09557 c 8.62463,8.30256 15.11085,15.09556 14.41383,15.09556 -0.69703,0 -7.84269,-6.3229 -15.87926,-14.05089 z m 2.31399,-1.86065 c -14.01238,-13.48764 -16.91962,-15.91779 -19.08441,-15.95256 -2.17093,-0.0348 -5.86182,-3.1478 -24.61637,-20.76167 -15.15897,-14.23698 -21.7894,-20.98485 -21.18965,-21.56496 0.59987,-0.58022 7.63132,5.65838 22.48058,19.9457 18.69674,17.9892 21.95251,20.78999 24.16735,20.78999 2.19876,0 5.01031,2.35863 19.93962,16.72752 9.55896,9.20014 16.80697,16.72752 16.1067,16.72752 -0.70028,0 -8.712,-7.16019 -17.80382,-15.91154 z m 5.09135,-1.63195 c -16.83046,-16.19737 -18.45815,-17.5435 -21.21281,-17.5435 -2.76869,0 -4.53434,-1.49205 -24.51309,-20.71476 -11.84121,-11.39312 -21.30517,-21.06377 -21.03102,-21.49033 0.27416,-0.426556 10.14621,8.52789 21.93788,19.89878 19.94527,19.23352 21.64844,20.67436 24.43858,20.67436 2.77901,0 4.39951,1.34759 22.07758,18.35947 10.49314,10.09771 18.50551,18.35947 17.80526,18.35947 -0.70024,0 -9.4763,-7.89457 -19.50238,-17.54349 z m 16.97118,5.71183 c -9.42757,-9.08178 -12.78761,-11.83166 -14.45695,-11.83166 -2.639,0 -4.21134,-1.37094 -4.21134,-3.67189 0,-2.18719 1.54398,-3.6719 3.81851,-3.6719 2.38703,0 3.81852,1.51059 3.81852,4.02952 0,1.58213 3.05309,5.01162 12.93025,14.52438 7.11165,6.84926 12.35716,12.45321 11.65672,12.45321 -0.70046,0 -6.80052,-5.32425 -13.55571,-11.83166 z m -13.15266,-15.43342 c 0,-0.96797 -0.70643,-1.64313 -1.90298,-1.81873 -1.84538,-0.27081 -1.96986,0.1306 -1.13003,3.64437 0.0347,0.14511 0.73129,0.14008 1.54803,-0.0112 0.81674,-0.15125 1.48498,-0.96776 1.48498,-1.81447 z m 17.59795,13.99645 c -9.59537,-9.23966 -13.77944,-13.82336 -13.77944,-15.09556 0,-1.00482 0.29026,-1.82694 0.64503,-1.82694 0.35476,0 7.70153,6.793 16.32615,15.09557 14.51055,13.96868 15.49103,15.09556 13.13442,15.09556 -2.16058,0 -4.63597,-2.0118 -16.32616,-13.26863 z m 4.0403,-4.27486 c -14.2451,-13.70926 -18.70375,-17.5435 -20.40044,-17.5435 -2.63567,0 -4.20777,-1.37188 -4.20777,-3.67189 0,-2.1872 1.54399,-3.6719 3.81852,-3.6719 2.38787,0 3.81851,1.51079 3.81851,4.03243 0,1.61491 4.17834,6.09497 18.87337,20.23622 10.38035,9.98917 18.30044,18.16213 17.60019,18.16213 -0.70024,0 -9.47631,-7.89457 -19.50238,-17.54349 z m -20.36541,-20.03959 c 0,-0.47527 0.38185,-0.63719 0.84856,-0.35983 0.4667,0.27737 0.84856,-0.27341 0.84856,-1.22396 0,-0.95055 -0.38186,-1.50133 -0.84856,-1.22397 -0.46671,0.27737 -0.84856,0.0848 -0.84856,-0.42783 0,-0.51267 -0.46671,-0.78253 -1.03713,-0.59969 -0.85138,0.27289 -1.21062,2.31674 -0.75427,4.29143 0.18503,0.80069 1.7914,0.39165 1.7914,-0.45615 z m 25.22019,18.97897 c -15.34098,-14.80296 -19.28028,-19.04218 -19.28028,-20.74818 0,-2.37989 -3.44711,-5.52642 -6.05435,-5.52642 -1.50445,0 -1.58268,-1.06171 -1.58268,-21.48114 l 0,-21.481132 -2.1214,-1.916427 c -3.32382,-3.002671 -2.75668,-4.079882 2.14803,-4.079882 3.01226,0 4.41325,-0.360409 4.75786,-1.223965 0.41948,-1.051149 4.16246,-1.223965 26.50957,-1.223965 l 26.02114,0 6.98187,6.748852 6.98188,6.748852 0,41.393757 0,41.39376 -12.54068,0 -12.54069,0 -19.28027,-18.60411 z M -0.89636546,175.06646 c 0,-0.67323 10.98065846,-11.77838 24.40146246,-24.67811 l 24.401464,-23.45404 11.019977,0 11.019976,0 22.184091,-21.32089 C 104.33185,93.886946 114.67713,84.507941 115.12009,84.7712 c 0.44297,0.263258 -9.35549,10.224846 -21.774366,22.13685 l -22.579771,21.65821 -11.005507,0 -11.005506,0 -24.825653,23.86212 C 10.275178,165.55256 -0.89636546,175.73969 -0.89636546,175.06646 z M 155.66276,173.44497 c -1.3414,-1.34636 -3.3221,-2.44793 -4.40155,-2.44793 -1.81325,0 -1.96264,-0.3416 -1.96264,-4.48787 l 0,-4.48787 4.66707,0 4.66707,0 0,6.9358 c 0,3.81469 -0.11948,6.9358 -0.26552,6.9358 -0.14603,0 -1.36303,-1.10157 -2.70443,-2.44793 z m -39.45799,1.16568 c 0,-0.25645 0.5722,-1.01651 1.27156,-1.68902 2.04473,-1.96621 2.3983,-4.89679 0.93184,-7.72352 -0.87134,-1.67959 -1.35484,-4.75079 -1.35484,-8.60603 0,-5.16399 0.20572,-5.99483 1.48498,-5.99714 2.33606,-0.004 15.4862,-13.15879 15.4862,-15.49143 0,-1.3682 2.40814,-4.30928 8.04884,-9.83011 7.73814,-7.57371 8.10414,-7.81906 9.48121,-6.35583 1.05811,1.1243 1.38003,2.7552 1.23206,6.24175 -0.19947,4.69982 -0.18231,4.73599 4.05937,8.55123 4.11435,3.70072 4.43683,3.83145 9.45087,3.83145 l 5.19117,0 6.72501,5.86762 c 6.19732,5.40721 6.725,6.11608 6.725,9.03403 0,3.76799 1.49792,5.43687 5.43079,6.05058 2.27545,0.35507 3.23461,0.0799 4.44005,-1.27392 0.84568,-0.94975 1.9506,-1.72682 2.45539,-1.72682 1.0186,0 6.34207,5.02883 6.34207,5.99106 0,0.33523 -6.58694,0.4112 -14.63764,0.16882 -36.96441,-1.11291 -43.06437,-1.37129 -43.06437,-1.82411 0,-0.26618 0.55188,-0.89164 1.2264,-1.3899 0.67451,-0.49826 1.47719,-1.90646 1.78374,-3.12933 0.45107,-1.7994 0.0489,-2.71234 -2.10894,-4.78733 -2.24594,-2.15968 -3.09158,-2.48213 -5.36361,-2.04518 -3.39323,0.65259 -3.99714,1.24707 -4.81671,4.74141 -0.45895,1.9568 -0.30879,3.28484 0.49024,4.33561 1.64649,2.16525 1.46548,2.57049 -1.39383,3.1204 -2.45992,0.47309 -2.54567,0.64144 -2.54567,4.99785 0,3.17784 -0.32878,4.50827 -1.11408,4.50827 -0.61275,0 -2.21159,1.10157 -3.553,2.44793 -2.16221,2.17021 -2.99853,2.44793 -7.3715,2.44793 -2.71293,0 -4.9326,-0.20982 -4.9326,-0.46627 z m -62.475156,-2.89963 c 0.291692,-1.40246 0.530349,-4.03119 0.530349,-5.84161 0,-2.87921 0.500422,-3.73348 3.993544,-6.81737 3.855599,-3.4039 4.064271,-3.48113 6.041065,-2.23561 1.317116,0.82987 2.952438,1.11603 4.584243,0.80221 2.040777,-0.39249 2.862535,-0.0896 4.20323,1.54941 3.25792,3.98274 10.311774,2.11351 10.311774,-2.73256 0,-3.09363 -2.081857,-5.49027 -5.308149,-6.11075 -1.992674,-0.38323 -2.3268,-0.79254 -1.997829,-2.44738 0.217273,-1.09294 2.096684,-3.59012 4.176469,-5.54928 l 3.781429,-3.56211 1.635139,2.03994 c 1.297845,1.61913 1.639042,3.39143 1.654011,8.59155 0.0185,6.41291 0.08375,6.61587 3.085606,9.58772 2.761907,2.73434 3.503887,3.03612 7.464815,3.03612 4.00533,0 4.69101,-0.28846 7.67816,-3.23011 1.80403,-1.77656 3.59986,-3.04006 3.99073,-2.80777 1.25904,0.74826 0.82425,7.45331 -0.51537,7.94763 -1.95453,0.72123 -2.63516,6.03333 -0.99617,7.77485 1.94185,2.06334 1.72554,2.55504 -1.124,2.55504 -1.92671,0 -3.5066,-1.02586 -6.91156,-4.48787 l -4.413925,-4.48787 -10.731504,0 -10.731499,0 -3.570913,3.49879 c -1.964001,1.92433 -3.570912,3.94387 -3.570912,4.48787 0,0.69364 -2.059438,0.98908 -6.894541,0.98908 l -6.894541,0 0.530349,-2.54992 z m -14.955851,-0.48245 c -1.283445,-0.18696 -2.333537,-0.61403 -2.333537,-0.94904 0,-1.31492 5.123675,-5.28832 5.854494,-4.54016 0.815789,0.83515 0.237529,6.15168 -0.647311,5.95139 -0.29706,-0.0672 -1.5902,-0.27523 -2.873646,-0.46219 z m 71.660807,-0.39473 c -1.57201,-1.51164 -1.20591,-4.60615 0.67885,-5.738 1.51203,-0.90803 1.69711,-1.90288 1.69711,-9.12241 0,-6.43669 0.29256,-8.41408 1.4225,-9.61471 1.08893,-1.15705 1.18888,-1.73614 0.42624,-2.4695 -0.76264,-0.73336 -0.46203,-1.49421 1.28194,-3.24462 2.3576,-2.36633 4.68768,-3.23913 2.79602,-1.04735 -1.50187,1.74016 1.34961,4.96027 3.13248,3.53743 2.32467,-1.85523 2.21002,0.19904 -0.14292,2.56067 -1.84912,1.85596 -2.68031,2.21323 -3.54451,1.52354 -0.83018,-0.66253 -1.4658,-0.63215 -2.40179,0.11483 -0.97224,0.7759 -1.27284,2.89569 -1.27284,8.97574 0,6.08005 0.3006,8.19984 1.27284,8.97574 1.79384,1.43158 1.58329,4.67867 -0.3685,5.68313 -2.15697,1.11006 -3.72731,1.06763 -4.97742,-0.13449 z m 4.75783,-1.26476 c 0.52698,-1.01082 0.28782,-1.84509 -0.81871,-2.85592 -0.85974,-0.78538 -1.56316,-1.0391 -1.56316,-0.56382 0,0.47527 -0.38185,0.63719 -0.84856,0.35983 -0.47842,-0.28433 -0.84855,0.37685 -0.84855,1.5158 0,1.79663 0.85582,2.70882 2.72796,2.90765 0.33361,0.0354 0.94156,-0.57816 1.35102,-1.36354 z M -0.89636546,85.110148 l 0,-86.2841439 23.55458146,0 23.554582,0 19.046622,18.3288609 c 10.475643,10.080873 18.873194,18.451881 18.661224,18.602239 -0.211969,0.150358 -1.415293,0.698196 -2.674055,1.217418 -5.080006,2.095432 -6.108534,7.709503 -1.898404,10.362165 1.828271,1.151931 2.334201,1.147347 5.444422,-0.04933 2.7458,-1.056468 3.680497,-1.118441 4.692115,-0.311106 1.846005,1.473221 1.549443,3.212931 -0.858123,5.034008 -2.885295,2.182427 -2.885295,6.49743 0,9.794744 1.166769,1.333383 2.121398,3.244896 2.121398,4.247806 0,2.109556 2.555723,5.029215 5.075502,5.798254 1.087445,0.331887 2.804351,-0.102683 4.583801,-1.160217 4.19623,-2.493829 7.64714,-2.227991 9.85936,0.759508 l 1.81449,2.450373 -1.77885,2.174614 -1.77886,2.174615 2.28001,2.28844 2.28001,2.288439 -21.936861,21.237755 -21.936866,21.23777 -11.075772,0 -11.075773,0 -23.977277,23.04596 -23.97727646,23.04597 0,-86.284138 z M 135.72162,164.87721 c 0,-1.63195 0.42428,-2.03994 2.1214,-2.03994 1.69712,0 2.1214,0.40799 2.1214,2.03994 0,1.63196 -0.42428,2.03995 -2.1214,2.03995 -1.69712,0 -2.1214,-0.40799 -2.1214,-2.03995 z m 5.09136,-4.8477 c 0,-1.54426 -0.38185,-3.03469 -0.84856,-3.31206 -1.17294,-0.69708 -1.06544,-3.95292 0.16971,-5.14065 1.3935,-1.33999 4.49581,-1.23179 5.73144,0.19988 1.50792,1.74718 0.73281,4.82697 -1.44622,5.74624 -1.31716,0.55568 -1.90925,1.50462 -1.90925,3.05992 0,1.23994 -0.38186,2.25443 -0.84856,2.25443 -0.46671,0 -0.84856,-1.26349 -0.84856,-2.80776 z m 4.24279,-5.7793 c 0,-1.03655 -0.47731,-2.04473 -1.0607,-2.24042 -1.85117,-0.62094 -3.18209,0.33228 -3.18209,2.27904 0,1.03655 0.47731,2.04474 1.0607,2.24042 1.85117,0.62094 3.18209,-0.33228 3.18209,-2.27904 z m -69.945502,4.85688 c -0.733397,-0.70523 -1.339297,-1.715 -1.346444,-2.24393 -0.0071,-0.52893 -0.359895,-1.48886 -0.783885,-2.13318 -0.666194,-1.01239 -0.981356,-1.0143 -2.320544,-0.014 -1.493655,1.11561 -1.494841,1.09543 -0.03284,-0.55853 1.139212,-1.28879 2.571728,-1.73883 5.754355,-1.80778 3.824604,-0.0829 4.319417,0.11528 5.077757,2.03328 0.606758,1.53461 0.540427,2.49427 -0.238722,3.45379 -2.350078,2.89411 -4.052937,3.24819 -6.10968,1.27042 z m 4.517399,-1.82162 c 0.450563,-0.80957 0.559461,-1.81934 0.241995,-2.24394 -0.921882,-1.233 -3.7293,-1.40092 -4.458304,-0.26666 -0.854896,1.33014 0.599644,3.98252 2.183975,3.98252 0.667221,0 1.58177,-0.66237 2.032334,-1.47192 z m 12.551925,-6.9e-4 c -2.112106,-2.11991 -2.280154,-2.80413 -2.280154,-9.28381 0,-5.22254 -0.322555,-7.25265 -1.272839,-8.01104 -2.700598,-2.15524 -0.995402,-6.52781 2.545677,-6.52781 3.792677,0 5.309433,4.80267 2.121397,6.71718 -1.46939,0.88241 -1.697117,1.90288 -1.697117,7.60483 0,5.49972 0.285294,6.88013 1.730177,8.37147 2.646613,2.73173 6.679007,2.37951 9.915647,-0.86611 2.57957,-2.58672 2.65146,-2.86861 2.92428,-11.46501 0.26979,-8.50129 0.36612,-8.891 2.7232,-11.01568 2.04058,-1.83939 2.28996,-1.91679 1.51228,-0.46936 -0.75735,1.40961 -0.62241,2.00199 0.72266,3.17254 1.35259,1.17706 1.88869,1.2519 2.94265,0.41077 1.98729,-1.58596 1.52483,0.34564 -0.50391,2.10477 -0.98596,0.85494 -2.60883,1.55442 -3.60637,1.55442 -1.6908,0 -1.83058,0.47003 -2.06264,6.9358 -0.2423,6.75093 -0.33171,7.01737 -3.35431,9.99572 -2.59315,2.55518 -3.68065,3.05991 -6.592931,3.05991 -2.713394,0 -3.993674,-0.508 -5.767697,-2.28859 z m 1.114081,-20.15077 c 0,-1.61319 -0.428997,-2.03994 -2.050687,-2.03994 -1.12787,0 -2.217174,0.45899 -2.420675,1.01997 -0.652491,1.79874 0.353484,3.05992 2.440752,3.05992 1.600281,0 2.03061,-0.43232 2.03061,-2.03995 z m 3.006198,18.41586 c -0.268517,-0.41778 -0.0818,-1.0011 0.414835,-1.29627 1.255834,-0.74635 3.591154,0.23166 2.946869,1.23412 -0.663235,1.03192 -2.714049,1.06984 -3.361704,0.0622 z m 91.182099,-0.4664 c -0.60281,-0.69846 -0.85166,-2.21863 -0.5783,-3.53289 0.42696,-2.05283 -0.33427,-3.08607 -6.91175,-9.38171 l -7.39156,-7.0748 -5.5343,0 c -5.39772,0 -5.62245,-0.0864 -9.10523,-3.49878 -2.90077,-2.84218 -3.57091,-4.06724 -3.57091,-6.52781 0,-1.66597 0.38185,-3.02903 0.84856,-3.02903 0.46671,0 0.84856,1.21064 0.84856,2.69031 0,2.03897 0.77909,3.42187 3.21787,5.71184 3.08886,2.90038 3.45526,3.02152 9.13877,3.02152 l 5.92089,0 8.02779,7.75178 c 4.41529,4.26347 8.45347,7.75177 8.97374,7.75177 0.52026,0 1.63849,0.73588 2.48493,1.63527 1.27163,1.35118 1.37134,1.98908 0.57398,3.67189 -1.11947,2.36263 -5.19308,2.83825 -6.94304,0.81064 z m 4.93393,-2.25375 c 0.33772,-1.68628 -2.1119,-2.82254 -3.40478,-1.57931 -1.29287,1.24323 -0.11123,3.59879 1.64238,3.27404 0.81279,-0.15052 1.60587,-0.91315 1.7624,-1.69473 z m -126.700391,0.21584 c -0.298616,-0.46462 0.432161,-0.81598 1.697118,-0.81598 1.264956,0 1.995733,0.35136 1.697117,0.81598 -0.288441,0.44878 -1.052144,0.81597 -1.697117,0.81597 -0.644974,0 -1.408677,-0.36719 -1.697118,-0.81597 z m 28.596435,-1.79515 c -1.39324,-1.33975 -1.281078,-4.32311 0.207193,-5.51084 0.67401,-0.53789 1.34225,-2.22886 1.484978,-3.75771 0.224995,-2.40997 2.793464,-5.22386 19.308985,-21.15394 10.47721,-10.10582 19.34734,-18.08778 19.7114,-17.7377 0.36405,0.35007 -7.7309,8.7008 -17.98878,18.55716 -16.37544,15.73446 -18.650693,18.23283 -18.650693,20.47962 0,1.40743 0.572777,3.01608 1.272838,3.57477 2.700605,2.15524 0.995405,6.52781 -2.545677,6.52781 -0.980085,0 -2.240195,-0.44063 -2.800244,-0.97917 z m 5.055271,-1.80276 c 0.961665,-1.27892 -0.0907,-2.57055 -2.233388,-2.74107 -2.312934,-0.18408 -3.22819,0.71676 -2.52319,2.48342 0.512869,1.2852 3.848104,1.46586 4.756578,0.25765 z m -34.846048,0.39792 c -1.002128,-0.61006 -0.933845,-1.12204 0.42428,-3.18126 1.543878,-2.34086 1.698083,-2.39148 3.339462,-1.09638 0.946464,0.74679 1.781898,2.18398 1.856521,3.19375 0.109643,1.48364 -0.301987,1.83355 -2.145121,1.82345 -1.25444,-0.007 -2.818254,-0.33967 -3.475142,-0.73956 z m 169.633293,-5.36777 -4.6091,-4.48787 4.50207,0 c 3.60851,0 4.80074,-0.35469 6.0069,-1.78703 1.4677,-1.74294 1.52573,-1.74797 2.35217,-0.20399 0.46604,0.87067 1.09946,2.59701 1.4076,3.83631 0.46787,1.88161 0.20729,2.40793 -1.57972,3.19089 -1.17701,0.51569 -2.14001,1.61305 -2.14001,2.43859 0,2.33546 -0.97979,1.84276 -5.93991,-2.9869 z m -174.803143,2.20001 c 0,-1.13199 5.884458,-6.19722 6.505618,-5.59991 0.325122,0.31264 -0.698694,1.84809 -2.275145,3.41213 -2.794807,2.77279 -4.230473,3.51524 -4.230473,2.18778 z m -1.998136,-1.60023 c -0.262488,-0.40841 0.990416,-2.12068 2.784232,-3.80503 1.793816,-1.68436 3.46638,-2.74367 3.71681,-2.35403 0.250429,0.38965 -1.002475,2.10191 -2.784232,3.80503 -1.781756,1.70312 -3.454321,2.76243 -3.71681,2.35403 z m 15.322529,0.0754 c -0.259144,-0.40319 7.963069,-8.89003 18.271588,-18.85961 l 18.742762,-18.12651 6.01517,-0.01 6.01517,-0.01 4.43457,-4.13009 c 2.43901,-2.27155 4.82173,-3.9 5.29493,-3.61877 0.47321,0.28123 -1.33142,2.4981 -4.01028,4.92637 l -4.87066,4.41504 -5.93299,0.0298 -5.93299,0.0298 -18.778058,18.04364 c -10.327921,9.9239 -18.990068,17.71365 -19.249212,17.31044 z m 36.74059,-1.08316 c 0,-1.94549 1.30304,-2.16446 2.03061,-0.34125 0.72779,1.82376 0.67039,1.97321 -0.75777,1.97321 -0.70713,0 -1.27284,-0.72532 -1.27284,-1.63196 z m -8.54463,-0.47638 c -0.78871,-0.91385 -0.86351,-1.67633 -0.25541,-2.60336 1.63332,-2.48993 2.86013,-2.07309 2.86013,0.97181 0,3.15486 -0.83732,3.67935 -2.60472,1.63155 z m -31.61524,-1.6945 c -0.3434,-0.33021 8.265698,-8.95364 19.131334,-19.16318 l 19.755696,-18.56279 5.97537,-0.043 c 5.93077,-0.0427 6.00309,-0.0702 9.68685,-3.67951 2.04132,-2.000082 4.06671,-3.425405 4.50085,-3.167385 0.43416,0.25802 -1.04668,2.261629 -3.29076,4.452485 l -4.08013,3.98337 -6.38932,0 -6.38932,0 -19.138103,18.3902 C 78.492941,134.22374 69.59983,142.22915 69.25643,141.89893 z m -2.268083,-2.52749 c 0,-0.34017 8.881032,-9.15272 19.735631,-19.58344 15.559842,-14.95222 20.199512,-18.96494 21.928032,-18.96494 1.58625,0 3.63643,-1.446056 7.4154,-5.230364 2.87265,-2.8767 5.44135,-4.890636 5.70822,-4.47541 0.26688,0.415226 -1.89255,3.136075 -4.79871,6.046345 -3.77629,3.781589 -5.91141,5.301409 -7.48299,5.326519 -1.70119,0.0272 -6.71355,4.27469 -22.140169,18.7617 -10.967624,10.2996 -20.036597,18.72916 -20.153274,18.73232 -0.116677,0.003 -0.21214,-0.27256 -0.21214,-0.61273 z m 59.730003,-0.67256 c 0.6168,-1.93468 -2.28548,-5.1846 -3.26667,-3.65796 -0.30723,0.47802 -0.98936,0.86913 -1.51584,0.86913 -0.52648,0 0.13205,-1.09331 1.46339,-2.42957 1.76188,-1.7684 2.93737,-2.30486 4.31944,-1.9713 1.11688,0.26955 2.20534,0.01 2.64318,-0.63034 1.89288,-2.76831 17.08502,-16.26886 17.52934,-15.57753 0.27569,0.42894 -3.63961,4.73037 -8.70064,9.55875 -6.10532,5.82465 -9.07764,9.2357 -8.83268,10.13645 0.20842,0.76639 -0.62162,2.23811 -1.906,3.3795 -2.10916,1.87436 -2.23567,1.89792 -1.73352,0.32287 z m 93.11739,-2.2749 c -2.74746,-2.72581 -2.96261,-4.59381 -0.5291,-4.59381 1.58095,0 3.81655,-3.19454 3.81655,-5.45362 0,-1.00463 -0.85916,-2.60101 -1.90926,-3.54751 -1.75987,-1.58627 -1.79747,-1.80019 -0.48053,-2.73412 3.47991,-2.46781 2.42968,-8.0921 -1.92999,-10.33574 -1.87985,-0.96743 -6.71148,0.30721 -6.71148,1.77057 0,0.39434 -1.06034,0.71698 -2.3563,0.71698 -1.78279,0 -3.74485,-1.34555 -8.06131,-5.52832 -3.13776,-3.04057 -5.70501,-5.79449 -5.70501,-6.11982 0,-0.32533 6.22305,-0.59151 13.829,-0.59151 l 13.82901,0 3.14217,3.09432 c 3.03152,2.98535 3.14217,3.3 3.14217,8.93519 0,4.28379 -0.33169,6.01938 -1.24422,6.51045 -0.96264,0.51804 -1.29871,2.88172 -1.48498,10.44425 -0.24041,9.76047 -0.24385,9.77503 -2.37211,10.01411 -1.51503,0.1702 -2.95355,-0.57628 -4.97461,-2.58142 z m -154.814391,1.35824 c -0.689218,-1.07235 51.850791,-51.367229 52.649751,-50.399914 0.37122,0.449457 -10.78885,11.702988 -25.756131,25.971814 -14.526157,13.84829 -26.628285,24.84094 -26.89362,24.4281 z M 230.0101,134.0741 c 0.0541,-1.90734 0.27306,-2.82532 0.4865,-2.03994 0.27436,1.00955 1.24007,1.42796 3.29579,1.42796 2.16608,0 2.93285,-0.36423 3.00618,-1.42796 0.0937,-1.35996 0.11691,-1.35996 0.4865,0 0.50562,1.86055 3.01938,1.8269 4.79918,-0.0642 1.2246,-1.30123 1.40436,-3.99726 1.40436,-21.06276 l 0,-19.570511 -2.37997,-2.192602 -2.37997,-2.192603 -18.24327,0 -18.24327,0 -2.88019,-2.857508 c -1.92013,-1.905004 -2.59734,-3.129499 -2.03164,-3.67348 0.56571,-0.543985 1.80863,0.136523 3.72876,2.041527 l 2.88019,2.857509 18.34309,0 18.34308,0 2.28015,2.288585 2.28015,2.288586 0,20.824497 c 0,20.71259 -0.0105,20.83405 -1.96394,22.59871 -1.08018,0.9758 -2.79851,1.77418 -3.81852,1.77418 -1.08279,0 -1.85457,0.50935 -1.85457,1.22397 0,0.90664 -0.98998,1.22396 -3.81851,1.22396 l -3.81852,0 0.0984,-3.4679 z m -135.852093,-1.0746 -2.105614,-1.98905 9.728807,-9.38186 c 9.68996,-9.34439 9.74496,-9.38186 13.77331,-9.38186 2.22447,0 4.04449,0.30597 4.04449,0.67993 0,0.72613 -21.713571,21.65604 -22.731035,21.91066 -0.332381,0.0832 -1.551862,-0.74385 -2.709958,-1.83782 z m 23.743883,-0.11689 c 0,-0.52588 0.40672,-1.19785 0.90383,-1.49328 1.56709,-0.93133 -1.78947,-3.73073 -3.80402,-3.17258 -0.97179,0.26924 3.67155,-4.74667 10.31853,-11.14646 6.64697,-6.39978 12.35574,-11.37601 12.68614,-11.0583 0.3304,0.31772 -3.6784,4.70421 -8.90845,9.74775 l -9.50919,9.17007 1.89445,1.82171 1.89445,1.82172 -2.73787,2.63274 c -1.50583,1.44801 -2.73787,2.20249 -2.73787,1.67663 z m 42.64008,-4.28656 c -2.35851,-2.87559 -2.82159,-10.10694 -0.5946,-9.28518 1.36895,0.50514 10.77755,9.65013 11.2723,10.95648 0.15557,0.41076 -1.75368,0.72652 -4.2428,0.70169 -3.9366,-0.0393 -4.77414,-0.34813 -6.4349,-2.37299 z m 36.81231,-14.51337 c -10.0949,-9.47262 -16.88623,-16.441728 -16.47554,-16.906867 0.4142,-0.469137 6.89541,5.160557 15.91823,13.826877 14.57751,14.00155 15.2866,14.55987 16.80905,13.23498 2.9692,-2.58392 6.9715,-1.27002 6.9715,2.28865 0,0.94245 -0.45823,2.15418 -1.01828,2.69272 -2.70574,2.60185 -4.88346,1.11737 -22.20496,-15.13636 z m 21.10184,12.44364 c 0,-2.43009 -3.31244,-2.18731 -3.6743,0.2693 -0.23303,1.58203 0.0519,1.85604 1.69712,1.63196 1.31812,-0.17954 1.97718,-0.81329 1.97718,-1.90126 z m -91.00795,2.26982 c -1.45746,-0.50273 -1.33916,-1.86183 0.16206,-1.86183 1.40553,0 2.51795,1.34551 1.5489,1.87345 -0.35764,0.19484 -1.12757,0.18961 -1.71096,-0.0116 z m -3.29291,-3.06927 c -0.71634,-1.79506 0.0709,-2.35348 1.30394,-0.92486 0.69408,0.8042 0.73009,1.33779 0.11493,1.70338 -0.49267,0.2928 -1.13116,-0.0575 -1.41887,-0.77852 z M 230.0101,123.8744 c -0.0732,-2.58067 0.22721,-3.4679 1.1744,-3.4679 1.04078,0 1.27284,-1.39289 1.27284,-7.64012 l 0,-7.64012 -4.20644,-3.78355 -4.20644,-3.783551 -16.07107,0 -16.07107,0 -2.65226,-2.90477 c -1.45875,-1.597625 -2.39215,-3.309487 -2.07422,-3.80414 0.35535,-0.552906 1.53836,0.251753 3.07094,2.088794 l 2.4929,2.988163 16.28144,0 16.28144,0 4.42595,4.309534 4.42595,4.30953 0,7.93012 c 0,7.38612 0.11641,7.93011 1.69712,7.93011 1.44634,0 1.68257,0.51243 1.59868,3.4679 -0.0541,1.90734 -0.27307,2.82531 -0.4865,2.03994 -0.27227,-1.00189 -1.23711,-1.42796 -3.23358,-1.42796 -1.99647,0 -2.96131,0.42607 -3.23358,1.42796 -0.21344,0.78537 -0.43237,-0.1326 -0.4865,-2.03994 z m -101.75579,0.44878 c -0.56005,-0.53854 -1.01828,-1.75027 -1.01828,-2.69272 0,-2.33267 1.58066,-3.67189 4.33388,-3.67189 1.69177,0 3.33431,-1.10909 6.23137,-4.2076 2.48544,-2.65826 4.23097,-3.92207 4.74041,-3.4322 0.50944,0.48988 -0.75399,2.25327 -3.43113,4.78891 -2.91721,2.76301 -4.23749,4.67136 -4.23749,6.12492 0,2.5564 -1.41993,4.06976 -3.81852,4.06976 -0.98009,0 -2.2402,-0.44063 -2.80024,-0.97918 z m 4.76246,-2.50056 c 0.33772,-1.68629 -2.1119,-2.82255 -3.40477,-1.57932 -1.29287,1.24323 -0.11124,3.59879 1.64238,3.27404 0.81279,-0.15051 1.60587,-0.91314 1.76239,-1.69472 z m 76.69919,-0.76334 c -0.56005,-0.53855 -1.01827,-1.27293 -1.01827,-1.63196 0,-1.07195 3.11218,-0.73881 4.13153,0.44227 1.69446,1.9633 -1.17031,3.05803 -3.11326,1.18969 z m 28.46587,-2.79475 c -2.27731,-1.14738 -2.33025,-1.34032 -2.33025,-8.49179 l 0,-7.31773 2.96995,0 2.96996,0 0,8.11161 c 0,4.46138 -0.28787,8.28269 -0.63971,8.49179 -0.35184,0.2091 -1.68832,-0.14815 -2.96995,-0.79388 z m -24.39279,-0.71395 c -0.62781,-0.72743 -2.48203,-1.22397 -4.57062,-1.22397 -3.38025,0 -3.94612,-0.41613 -14.83889,-10.91225 -6.22855,-6.001726 -10.95322,-11.132971 -10.49929,-11.402749 0.45394,-0.26977 5.72739,4.273547 11.71877,10.096279 9.90511,9.62627 11.16742,10.58677 13.91334,10.58677 2.1009,0 3.34243,-0.49663 4.07977,-1.63195 1.99096,-3.06563 6.9854,-1.60711 6.9854,2.03994 0,3.40511 -4.54718,5.04483 -6.78848,2.44793 z m 4.66708,-2.52572 c 0,-1.87307 -3.3654,-2.19525 -3.44928,-0.3302 -0.0838,1.86372 0.34711,2.32219 1.96767,2.09347 0.81507,-0.11503 1.48161,-0.90828 1.48161,-1.76327 z m -75.50841,-1.12543 c -0.68573,-1.06693 1.26728,-1.97161 2.23904,-1.03717 0.54317,0.52232 0.37978,0.96647 -0.47105,1.28043 -0.71648,0.26438 -1.51208,0.15492 -1.76799,-0.24326 z m -26.23967,-13.28036 c 1.25875,-2.127658 3.19617,-3.875888 4.29532,-3.875888 1.79225,0 1.33536,2.224702 -0.74461,3.625628 -2.27979,1.53551 -4.39947,1.68491 -3.55071,0.25026 z m 20.07428,-0.33641 c -0.64221,-0.2492 -1.0607,-1.959968 -1.0607,-4.336148 0,-4.443955 0.60444,-4.915165 6.30488,-4.915165 3.45991,0 3.68195,-0.150686 5.00899,-3.399301 1.0033,-2.456057 1.13647,-3.691445 0.47995,-4.452131 -1.04302,-1.20851 -0.32834,-2.756262 1.27272,-2.756262 0.89741,0 3.05608,-3.197148 3.05608,-4.526265 0,-0.203277 -1.33648,-0.369594 -2.96995,-0.369594 -2.60225,0 -2.96996,-0.252565 -2.96996,-2.039941 l 0,-2.039942 19.09258,0 c 18.52686,0 19.09257,0.04836 19.09257,1.631953 0,1.565623 -0.56571,1.631953 -13.91821,1.631953 l -13.91821,0 -0.93157,2.569692 c -0.51236,1.413331 -0.93157,2.655668 -0.93157,2.76075 0,0.105081 0.80393,0.393217 1.78652,0.640303 2.53004,0.636217 1.53827,2.550147 -1.47198,2.840667 -2.12884,0.205455 -2.74425,0.813227 -3.92468,3.875888 l -1.39996,3.63223 10.99064,0 c 10.42493,0 10.99064,0.084 10.99064,1.631953 0,1.553864 -0.56571,1.631953 -11.82264,1.631953 -11.02552,0 -11.85849,0.108606 -12.35429,1.610754 -1.11122,3.366697 -6.81723,5.767533 -10.40185,4.376653 z m 6.15205,-4.355454 c 1.50445,-1.598563 1.48212,-1.631953 -1.09124,-1.631953 -2.72504,0 -4.05895,1.036102 -3.15155,2.447929 0.83007,1.291512 2.57526,0.955876 4.24279,-0.815976 z m 88.6243,1.950061 -3.02006,-2.903636 -15.82158,0.100373 -15.82159,0.100366 -3.43302,-2.982435 c -3.13282,-2.721641 -4.45506,-5.240471 -2.75093,-5.240471 0.37516,0 1.97747,1.285163 3.5607,2.855918 l 2.87859,2.855918 16.10149,0 c 13.87453,0 16.31888,0.189184 17.67333,1.367878 1.205,1.048644 1.80481,1.143861 2.57006,0.407989 2.36229,-2.271581 6.59871,-0.530459 6.59871,2.712004 0,4.421559 -4.31065,4.788249 -8.5357,0.726096 z m 6.83858,-0.658101 c 0,-1.084563 -0.47731,-2.132041 -1.0607,-2.327728 -1.87056,-0.627437 -3.18209,0.339911 -3.18209,2.347034 0,1.538834 0.44957,1.952642 2.1214,1.952642 1.6776,0 2.12139,-0.412527 2.12139,-1.971948 z M 123.8418,94.295253 c 0,-0.448787 0.16839,-0.815977 0.3742,-0.815977 0.20581,0 0.6102,0.36719 0.89864,0.815977 0.28844,0.448787 0.12005,0.815976 -0.3742,0.815976 -0.49425,0 -0.89864,-0.367189 -0.89864,-0.815976 z m 90.37152,-3.21161 c -8.86744,-0.253157 -16.59993,-0.757349 -17.18331,-1.120426 -1.52133,-0.946818 -1.30718,-2.746201 0.40189,-3.376853 0.87964,-0.324587 1.84218,-0.04047 2.41496,0.712731 0.79797,1.049403 4.03425,1.288084 19.96352,1.472372 16.23144,0.187781 19.01115,0.398899 19.01115,1.443903 0,1.460982 -1.72047,1.521682 -24.60821,0.868273 z m 98.02446,-6.156722 -6.33762,-6.135221 -27.81154,0 c -24.15566,0 -27.81154,0.160892 -27.81154,1.223964 0,0.887203 -0.87553,1.197919 -3.1821,1.129312 -1.75015,-0.05206 -2.51385,-0.262581 -1.69712,-0.467824 2.34468,-0.589198 2.00216,-4.940065 -0.42428,-5.389473 -1.05009,-0.194491 -0.28638,-0.403624 1.69712,-0.46474 1.98351,-0.06112 3.60638,0.256068 3.60638,0.704855 0,0.527314 9.79604,0.815976 27.691,0.815976 l 27.69102,0 6.79068,6.399875 c 3.73488,3.519935 6.64105,6.831567 6.45816,7.359186 -0.1829,0.527619 -3.18447,-1.801546 -6.67016,-5.17591 z m -119.07394,0.686766 c -0.67794,-0.651908 0.0884,-1.926128 1.15843,-1.926128 0.43916,0 0.79848,0.550784 0.79848,1.223964 0,1.261834 -1.00127,1.621101 -1.95691,0.702164 z m 119.48232,-5.190034 -5.8944,-5.711836 -26.99114,0 c -23.20932,0 -27.05957,-0.171493 -27.47956,-1.223964 -0.39638,-0.993281 -2.39551,-1.223965 -10.60699,-1.223965 -8.21148,0 -10.21061,0.230684 -10.60698,1.223965 -0.40803,1.022468 -2.8965,1.223964 -15.11592,1.223964 -13.64567,0 -14.73264,-0.111735 -16.19415,-1.664678 -1.54611,-1.642833 -1.45618,-1.771327 6.85318,-9.791718 4.63091,-4.469872 8.71339,-8.127039 9.07218,-8.127039 0.35879,0 0.65234,1.101568 0.65234,2.447929 l 0,2.44793 7.12196,0 c 5.54785,0 7.22992,-0.270524 7.61041,-1.223965 0.42541,-1.066058 6.12982,-1.223965 44.21585,-1.223965 l 43.72741,0 0,14.279589 c 0,7.853773 -0.10571,14.279588 -0.2349,14.279588 -0.12919,0 -2.88737,-2.570326 -6.12929,-5.711835 z m -109.03982,1.631953 c 0,-0.508892 4.94992,-0.815977 13.15266,-0.815977 8.20274,0 13.15266,0.307085 13.15266,0.815977 0,0.508891 -4.94992,0.815976 -13.15266,0.815976 -8.20274,0 -13.15266,-0.307085 -13.15266,-0.815976 z m 28.851,-2.039942 c 0,-1.046478 -2.41996,-1.223964 -16.68833,-1.223964 -9.17857,0 -16.43026,-0.248152 -16.11485,-0.551448 0.31541,-0.303296 -0.28919,-1.494035 -1.34355,-2.646086 -1.63822,-1.790001 -1.66048,-1.88781 -0.15309,-0.672517 1.54268,1.24374 3.80448,1.422121 18.03188,1.422121 10.27958,0 16.26794,-0.300367 16.26794,-0.815976 0,-0.448787 1.62287,-0.773382 3.60638,-0.721323 1.9835,0.05206 2.93813,0.262579 2.12139,0.46782 -0.97664,0.245423 -1.48498,1.170176 -1.48498,2.701432 0,1.531256 0.50834,2.456008 1.48498,2.701429 0.81674,0.205243 -0.13789,0.415765 -2.12139,0.467824 -2.68372,0.07042 -3.60638,-0.218486 -3.60638,-1.129312 z m -99.22782,-5.207599 c -2.46994,-4.437909 0.39595,-8.256013 6.19701,-8.256013 l 3.70491,0 2.75925,-5.915829 c 1.51758,-3.253706 2.92678,-6.32656 3.13155,-6.828563 0.20478,-0.502004 -0.45322,-1.120326 -1.4622,-1.374049 -3.36863,-0.84709 -1.30651,-2.597442 3.36739,-2.858287 7.36338,-0.410944 10.90744,3.289833 6.86922,7.172993 -1.40978,1.355653 -1.52884,1.948699 -0.72977,3.635126 2.10681,4.446399 -2.76528,9.428687 -9.22604,9.43472 -1.85901,0.0017 -2.7215,0.652109 -4.05791,3.059912 -1.54654,2.786405 -2.04999,3.079587 -5.6742,3.304306 -3.25628,0.201905 -4.14059,-0.04717 -4.87921,-1.374316 z m 6.88022,-2.262656 c 2.20695,-1.920572 1.92726,-2.729451 -0.9438,-2.729451 -2.72629,0 -3.85824,1.049695 -3.12186,2.894993 0.62345,1.562303 2.15168,1.500079 4.06566,-0.165542 z m 12.44253,-7.29611 c 2.62746,-1.769679 2.17401,-4.732008 -0.77482,-5.061777 -1.85967,-0.207968 -2.39085,0.251416 -3.53811,3.059912 -1.32897,3.253318 -1.32098,3.304618 0.5144,3.304618 1.02538,0 2.73472,-0.586239 3.79853,-1.302753 z m 2.5165,-9.468136 c 1.51787,-1.459594 1.23067,-3.100711 -0.54264,-3.100711 -0.8585,0 -1.99587,0.917974 -2.52749,2.039941 -0.83378,1.75969 -0.75923,2.039942 0.54264,2.039942 0.83007,0 1.96744,-0.440628 2.52749,-0.979172 z m 39.01897,16.032006 c -0.27055,-0.425285 4.80084,-6.097493 11.26975,-12.604905 6.46891,-6.507412 11.76579,-11.280875 11.77083,-10.607694 0.0121,1.62249 -22.40682,24.208839 -23.04058,23.212599 z m -82.55005,-2.813187 c -1.97172,-1.979015 -3.13995,-2.44793 -6.09866,-2.44793 -2.01287,0 -3.65976,-0.367189 -3.65976,-0.815976 0,-0.448787 1.83434,-0.815977 4.07633,-0.815977 3.497,0 4.46179,0.382414 6.78847,2.69077 1.49167,1.479924 2.71214,2.948681 2.71214,3.263906 0,1.20376 -1.47073,0.481668 -3.81852,-1.874793 z M 94.311944,68.02081 c -1.80127,-1.732105 -1.197563,-4.689095 1.169026,-5.725983 2.663024,-1.166765 4.89502,-0.09364 5.30273,2.549525 0.53274,3.453578 -3.913919,5.636079 -6.471756,3.176458 z m 4.762469,-2.500566 c 0.337722,-1.686281 -2.111902,-2.822545 -3.404775,-1.579316 -1.292873,1.243229 -0.111237,3.59879 1.642378,3.274042 0.812792,-0.150518 1.605872,-0.913145 1.762397,-1.694726 z m 12.463277,-2.314857 c -5.91902,-5.591527 -5.9567,-5.611296 -10.71522,-5.62017 -3.218711,-0.006 -5.119662,0.390069 -5.831679,1.215059 -1.268926,1.470253 -4.359463,1.601365 -5.7702,0.244793 -1.499565,-1.441985 -1.239168,-4.287497 0.533523,-5.830162 2.019069,-1.757075 2.944787,-1.702921 4.812398,0.281522 1.217156,1.2933 2.613536,1.631953 6.729098,1.631953 l 5.19321,0 6.31116,6.109601 c 3.91672,3.791635 6.00128,6.38828 5.49439,6.844134 -0.50157,0.45108 -3.10895,-1.430832 -6.75668,-4.87673 z M 93.717953,56.341172 c 0,-1.076794 -0.569604,-1.620779 -1.697118,-1.620779 -1.565769,0 -2.288114,1.53532 -1.460904,3.105091 0.674417,1.279823 3.158022,0.112495 3.158022,-1.484312 z m 96.309187,11.432227 c -0.84061,-0.973979 -0.83873,-1.221347 0.009,-1.221347 0.58489,0 6.5073,-4.957057 13.16091,-11.015682 6.6536,-6.058626 12.52236,-11.015683 13.04168,-11.015683 0.51933,0 0.94423,0.550784 0.94423,1.223965 0,0.673181 -0.48687,1.223965 -1.08194,1.223965 -0.59506,0 -3.93626,2.781358 -7.42489,6.180796 -3.48862,3.399439 -8.87471,8.355317 -11.96908,11.013064 -4.83229,4.150437 -5.77487,4.659936 -6.68023,3.610922 z m -30.37615,-2.200518 c -1.64877,-1.585461 -1.17229,-4.658748 1.05424,-6.799786 1.62192,-1.559643 2.81134,-1.945371 5.47064,-1.774133 4.36432,0.281026 4.7417,0.721193 3.15228,3.676767 -1.23239,2.291695 -1.21109,2.459849 0.36172,2.855356 0.91918,0.23114 1.67123,0.833345 1.67123,1.338232 0,1.429927 -2.60352,2.04056 -4.31587,1.012247 -0.98359,-0.590676 -1.73211,-0.63749 -2.05907,-0.128778 -0.71604,1.1141 -4.10846,0.999706 -5.33517,-0.179905 z m 6.44904,-3.263906 c 1.45542,-1.399529 1.25815,-2.284734 -0.50913,-2.284734 -1.5739,0 -3.56395,1.458007 -3.56395,2.611124 0,1.006885 2.9308,0.772029 4.07308,-0.32639 z m -52.14294,-3.162591 c -6.61659,-6.235791 -7.00362,-6.465932 -10.87387,-6.465932 -3.654305,0 -4.488362,-0.40124 -9.328966,-4.48787 -5.725227,-4.83347 -6.4803,-5.137818 -8.097611,-3.263906 -1.345034,1.558436 -5.420035,1.585552 -6.749708,0.04491 -1.57618,-1.826257 -0.701654,-4.757868 1.824765,-6.117022 2.129162,-1.145439 2.427166,-1.104892 4.297485,0.584714 1.105324,0.998527 2.653308,1.815502 3.439964,1.815502 0.786657,0 1.430289,0.324943 1.430289,0.722096 0,0.397152 2.384959,2.600288 5.299912,4.895858 4.642015,3.655653 5.77671,4.173764 9.14075,4.173764 3.68694,0 4.12413,0.27385 10.91162,6.8348 3.88894,3.75914 6.73225,7.035998 6.31847,7.281909 -0.41377,0.24591 -3.83968,-2.462561 -7.6131,-6.018824 z M 83.535246,42.547358 c 0,-0.848645 -0.666724,-1.637089 -1.481609,-1.752096 -1.786337,-0.252112 -2.668748,0.900937 -1.990386,2.600842 0.687691,1.723282 3.471995,1.042646 3.471995,-0.848746 z M 187.10423,64.989792 c -0.27322,-0.425097 -0.13506,-0.98786 0.30701,-1.250585 0.44208,-0.262724 1.02731,-0.129874 1.30052,0.295223 0.27322,0.425097 0.13507,0.987861 -0.30701,1.250586 -0.44207,0.262724 -1.02731,0.129874 -1.30052,-0.295224 z m -85.60781,-3.061607 c -1.00689,-0.968216 -0.60028,-2.758383 0.73874,-3.252481 1.28756,-0.475115 4.63546,1.76884 4.63546,3.106956 0,0.813228 -4.55167,0.936481 -5.3742,0.145525 z m 15.51412,-6.433173 -7.13249,-6.894442 -4.69103,0 -4.69103,0 L 74.625377,23.713287 C 60.39654,10.025281 49.327663,-1.1739959 50.027873,-1.1739959 c 0.700209,0 12.341864,10.6484928 25.870343,23.6633179 l 24.597244,23.663318 4.68931,0 4.68933,0 7.92248,7.65009 c 4.35737,4.207549 7.56787,7.860833 7.13447,8.118407 -0.43341,0.257575 -3.99764,-2.634181 -7.92051,-6.426125 z m 66.77421,6.412136 c -0.95323,-0.916634 8.12229,-9.226696 10.0766,-9.226696 2.26211,0 3.80507,1.488962 3.80507,3.671894 0,3.253064 -4.23795,4.982106 -6.61316,2.698102 -0.78453,-0.754406 -1.55012,-0.478657 -3.39824,1.223965 -2.5464,2.345933 -2.95106,2.516645 -3.87027,1.632735 z m 12.02538,-5.362646 c 0.33772,-1.68628 -2.1119,-2.822545 -3.40477,-1.579316 -1.29287,1.243229 -0.11124,3.598791 1.64238,3.274043 0.81279,-0.150518 1.60587,-0.913145 1.76239,-1.694727 z m -69.42265,2.811831 c 0,-0.986153 1.60988,-2.135897 2.19836,-1.570019 0.21358,0.205381 -0.19368,0.837894 -0.90502,1.405585 -0.80646,0.6436 -1.29334,0.705502 -1.29334,0.164434 z m 54.41127,-0.436125 c -0.90121,-1.044201 -0.4902,-2.159873 0.7957,-2.159873 0.95151,0 1.66299,2.341799 0.857,2.820802 -0.39344,0.233824 -1.13715,-0.06359 -1.6527,-0.660929 z m 37.23309,-3.791826 0,-3.263906 5.51563,0 c 3.11139,0 5.51563,0.355681 5.51563,0.815976 0,0.533721 15.55691,0.815977 44.97363,0.815977 39.41084,0 44.97362,0.151392 44.97362,1.223964 0,1.072436 -5.5186,1.223965 -44.57597,1.223965 -38.84031,0 -44.63883,0.15749 -45.06441,1.223965 -0.36369,0.911354 -1.87398,1.223965 -5.91329,1.223965 l -5.42484,0 0,-3.263906 z M 117.66699,51.232016 c -5.7973,-5.617741 -6.6156,-7.016695 -4.55019,-7.778836 1.45668,-0.537519 12.42212,9.966734 12.42212,11.899673 0,2.568721 -2.10656,1.46597 -7.87193,-4.120837 z m 4.90197,-1.86158 -7.63703,-7.284964 -7.36301,-0.0064 -7.36303,-0.0064 L 78.136426,20.653375 C 65.99822,8.8727149 56.469734,-0.903035 56.962013,-1.0705128 57.454293,-1.2379906 67.455927,7.8499476 79.187866,19.124905 l 21.330804,20.499923 7.64767,0 7.64767,0 8.01498,7.73941 c 5.1134,4.93759 7.7185,8.020292 7.196,8.515286 -0.5216,0.494131 -3.59225,-1.86953 -8.45603,-6.509088 z m 55.22672,6.683438 c -0.36554,-0.568738 -0.43545,-1.254431 -0.15536,-1.523765 0.75943,-0.730267 1.58745,0.343774 1.17728,1.527055 -0.28743,0.829174 -0.4873,0.828531 -1.02192,-0.0033 z m 5.44524,-0.517504 c 0,-0.673181 0.57278,-1.223965 1.27284,-1.223965 0.70006,0 1.27284,0.550784 1.27284,1.223965 0,0.67318 -0.57278,1.223965 -1.27284,1.223965 -0.70006,0 -1.27284,-0.550785 -1.27284,-1.223965 z m 15.43364,-2.822877 c -1.02118,-1.328189 -1.85669,-3.266029 -1.85669,-4.306311 0,-1.040282 -0.5593,-2.659268 -1.24288,-3.597747 -0.68359,-0.938479 -1.0018,-1.938154 -0.70714,-2.221501 0.96064,-0.923751 17.08613,-0.573962 17.70181,0.383982 0.51354,0.799008 -10.26686,12.156466 -11.5388,12.156466 -0.27478,0 -1.33512,-1.0867 -2.3563,-2.414889 z m -72.71136,-6.652799 -7.63703,-7.236414 -8.0678,-0.0078 -8.06781,-0.0077 L 81.413849,18.817428 C 69.986661,7.8221449 61.210046,-1.1739959 61.910259,-1.1739959 c 0.700214,0 10.240532,8.6289513 21.200707,19.1754479 l 19.927594,19.175447 8.51006,0 8.51005,0 7.58931,7.331868 c 4.69257,4.533397 7.27688,7.609825 6.77078,8.060104 -0.50116,0.445867 -3.77974,-2.077639 -8.45556,-6.508177 z m 48.36801,6.619998 c -0.80161,-1.247229 3.38799,-2.448169 8.54067,-2.448169 4.24664,0 4.61184,-0.148612 4.61184,-1.876746 0,-2.338277 1.49034,-3.83509 3.81851,-3.83509 2.29582,0 3.81852,1.489462 3.81852,3.735178 0,2.680228 -1.61954,3.481851 -8.09814,4.008319 -3.2467,0.263836 -7.31198,0.649819 -9.03396,0.857741 -1.72199,0.207921 -3.36784,0.0094 -3.65744,-0.441233 z m 18.66814,-4.569422 c 0,-2.316315 -3.31981,-2.054673 -3.66588,0.288919 -0.22417,1.518003 0.0725,1.789057 1.69711,1.550641 1.26324,-0.185382 1.96877,-0.844601 1.96877,-1.83956 z m 40.67268,3.662722 c -0.61645,-0.959127 25.65751,-26.83674 27.24777,-26.83674 0.4973,0 2.2042,1.289769 3.7931,2.866154 l 2.88891,2.866153 4.91327,-4.675314 c 3.65825,-3.481077 4.782,-5.073039 4.39935,-6.232366 -0.39525,-1.197506 1.512,-3.511839 8.25959,-10.0224981 l 8.77352,-8.4654473 12.5314,0 12.53141,0 0,25.7032594 0,25.703259 -42.37786,0 c -30.15672,0 -42.54588,-0.261409 -42.96046,-0.90646 z m -105.39906,-9.155724 -8.35063,-7.889298 -8.31713,0 -8.31715,0 -18.709053,-17.951483 -18.709044,-17.9514829 13.51298,0 13.512977,0 10.1275,9.7640603 c 5.57011,5.3702336 9.95544,9.8830396 9.74516,10.0284576 -0.21028,0.145419 -1.52699,0.625394 -2.92603,1.066611 -5.25101,1.656025 -5.73788,8.674163 -0.75325,10.858106 2.8476,1.247636 3.51137,1.176653 6.19777,-0.662785 l 2.31424,-1.584609 10.51757,10.138068 c 8.11163,7.818937 10.28735,10.359455 9.51114,11.10586 -0.77621,0.746405 -2.91668,-0.836922 -9.35705,-6.921505 z m 42.66372,6.798082 c -0.70104,-1.090747 2.45957,-2.447733 5.7011,-2.447733 2.32118,0 3.68803,-0.823203 7.45169,-4.487871 l 4.6091,-4.487871 14.66663,0 c 12.4713,0 14.66663,-0.183205 14.66663,-1.223964 0,-0.962434 1.17855,-1.223965 5.51563,-1.223965 l 5.51563,0 0,3.671894 0,3.671894 -5.51563,0 c -4.33708,0 -5.51563,-0.261531 -5.51563,-1.223964 0,-1.039169 -2.14224,-1.223965 -14.18876,-1.223965 l -14.18876,0 -4.69167,4.388809 c -4.16032,3.891752 -5.19355,4.441576 -9.12298,4.854722 -2.43721,0.256252 -4.64355,0.135658 -4.90298,-0.267986 z m 47.94371,-0.81578 c 0,-0.448787 2.10018,-0.815977 4.66707,-0.815977 2.56689,0 4.66708,0.36719 4.66708,0.815977 0,0.448787 -2.10019,0.815976 -4.66708,0.815976 -2.56689,0 -4.66707,-0.367189 -4.66707,-0.815976 z m 11.03126,0.563352 c 0,-0.930867 29.35582,-28.102851 29.96827,-27.738871 0.9358,0.556146 -27.38825,27.991495 -28.89821,27.991495 -0.58853,0 -1.07006,-0.113681 -1.07006,-0.252624 z M 128.96953,36.244817 c -5.81383,-5.770373 -11.16337,-10.491589 -11.88785,-10.491589 -0.72448,0 -1.79418,0.734379 -2.3771,1.631953 -1.99096,3.065625 -6.9854,1.607103 -6.9854,-2.039941 0,-3.405113 4.54717,-5.044829 6.78847,-2.44793 0.581,0.673181 1.87408,1.223965 2.87351,1.223965 2.04521,0 24.75427,21.303678 23.74431,22.274858 -0.32744,0.314866 -0.81809,0.520237 -1.09034,0.456378 -0.27224,-0.06386 -5.25177,-4.837319 -11.0656,-10.607694 z M 113.23481,25.267454 c 0,-1.873079 -3.3654,-2.195252 -3.44928,-0.330202 -0.0838,1.863714 0.34711,2.322187 1.96767,2.093472 0.81508,-0.115034 1.48161,-0.908283 1.48161,-1.76327 z m 54.30999,20.888631 c -0.35844,-0.557702 0.49018,-2.059164 2.02379,-3.580696 2.54327,-2.523236 2.64337,-2.890768 2.70309,-9.925207 0.0458,-5.402458 0.4493,-7.942476 1.54908,-9.752872 2.44639,-4.027137 7.72305,-3.469634 7.72305,0.815977 0,2.440053 -2.035,3.956016 -4.6622,3.47308 l -2.12628,-0.390856 0,7.065034 0,7.065035 -3.29662,3.095468 c -2.22875,2.092746 -3.49659,2.784353 -3.91391,2.135037 z m 10.95965,-20.898146 c 0.73823,-0.272408 1.34224,-1.21592 1.34224,-2.096693 0,-2.369988 -3.72982,-1.680479 -4.08967,0.756035 -0.27804,1.882514 0.3924,2.209668 2.74743,1.340658 z m 40.37595,20.078725 c 0,-0.448787 2.10018,-0.815977 4.66707,-0.815977 2.56689,0 4.66708,0.36719 4.66708,0.815977 0,0.448787 -2.10019,0.815976 -4.66708,0.815976 -2.56689,0 -4.66707,-0.367189 -4.66707,-0.815976 z m 11.03126,-0.01884 c 0,-1.599186 26.78794,-27.321936 27.42351,-26.333048 0.26736,0.415981 -5.79356,6.786548 -13.4687,14.156816 -7.67515,7.370269 -13.95481,12.849574 -13.95481,12.176234 z M 119.599,21.265358 C 103.47954,5.7571506 96.799444,-1.1739959 97.972424,-1.1739959 c 1.089617,0 9.832956,7.8273684 24.422746,21.8641599 19.79623,19.04591 23.42238,23.014547 21.02841,23.014547 -0.27543,0 -10.99649,-10.097709 -23.82458,-22.439353 z m 44.73783,21.940614 c -0.28526,-0.274307 0.60573,-1.408516 1.97997,-2.520465 l 2.49862,-2.021725 0,-12.167113 0,-12.167112 -2.96995,0 c -2.07426,0 -2.96996,0.369133 -2.96996,1.223965 0,0.913405 -0.91505,1.19577 -3.60638,1.112844 -1.9835,-0.06112 -2.74721,-0.27025 -1.69711,-0.464741 1.44937,-0.268441 1.90925,-0.915919 1.90925,-2.688044 0,-1.772126 -0.45988,-2.419603 -1.90925,-2.688044 -1.0501,-0.194491 -0.28639,-0.403624 1.69711,-0.464741 1.98351,-0.06112 3.60638,0.256068 3.60638,0.704855 0,0.453321 2.26283,0.815977 5.09135,0.815977 2.82853,0 5.09136,-0.362656 5.09136,-0.815977 0,-0.448787 1.62287,-0.773381 3.60637,-0.721322 1.98351,0.05206 2.93814,0.262579 2.1214,0.46782 -0.97664,0.245423 -1.48498,1.170176 -1.48498,2.701432 0,1.531256 0.50834,2.456009 1.48498,2.701432 0.81674,0.205241 -0.13789,0.41576 -2.1214,0.46782 -2.68371,0.07044 -3.60637,-0.218489 -3.60637,-1.129311 0,-0.67318 -0.38186,-1.223965 -0.84856,-1.223965 -0.52586,0 -0.84856,4.405253 -0.84856,11.583806 0,11.186479 -0.0767,11.690266 -2.2368,14.687576 -2.11076,2.928871 -3.60511,3.741999 -4.78747,2.605033 z m 12.28533,-1.296409 c -1.41073,-1.356573 -1.27439,-4.328438 0.25457,-5.548641 0.70006,-0.55869 1.27284,-2.177025 1.27284,-3.5963 0,-2.008566 0.93627,-3.478438 4.22434,-6.631894 3.27035,-3.13647 4.2285,-4.634921 4.24279,-6.63532 0.0102,-1.421158 -0.45886,-2.76913 -1.04224,-2.995492 -0.63365,-0.245867 -0.46284,-0.437503 0.42428,-0.475987 1.06074,-0.04601 1.48498,-0.746662 1.48498,-2.452517 0,-1.588237 -0.49738,-2.513086 -1.48498,-2.761263 -0.81674,-0.205241 0.13789,-0.41576 2.1214,-0.46782 l 3.60637,-0.09465 0,3.263906 c 0,2.719921 -0.28285,3.263906 -1.69712,3.263906 -1.39873,0 -1.69711,0.543984 -1.69711,3.094013 0,2.589114 -0.62313,3.682085 -3.81852,6.697705 -4.09957,3.868937 -5.1078,7.746991 -2.54568,9.791717 2.7006,2.155236 0.99541,6.527812 -2.54567,6.527812 -0.98009,0 -2.2402,-0.440627 -2.80025,-0.979171 z m 4.49737,-2.703898 c 0,-1.076793 -0.56961,-1.620778 -1.69712,-1.620778 -1.56577,0 -2.28812,1.53532 -1.46091,3.105091 0.67442,1.279822 3.15803,0.112495 3.15803,-1.484313 z m -20.25201,0.539665 c -1.70785,-1.814694 -1.99539,-13.895932 -0.36798,-15.460859 2.38021,-2.288812 6.61876,-0.564433 6.61876,2.692722 0,2.238776 -1.55658,3.671894 -3.98822,3.671894 -1.72462,0 -1.95169,0.396 -1.95169,3.403649 0,1.943348 0.56982,4.009112 1.32811,4.814852 0.73499,0.780967 0.97513,1.620991 0.53769,1.880955 -0.43473,0.258365 -1.41424,-0.19308 -2.17667,-1.003213 z m 4.55367,-12.768137 c 0,-1.631953 -0.42428,-2.039941 -2.1214,-2.039941 -1.69712,0 -2.1214,0.407988 -2.1214,2.039941 0,1.631953 0.42428,2.039941 2.1214,2.039941 1.69712,0 2.1214,-0.407988 2.1214,-2.039941 z m -1.7965,9.907847 c -1.23992,-2.616846 -0.45392,-4.604 1.82109,-4.604 1.52654,0 1.73811,0.419454 1.51161,2.996837 -0.31775,3.615691 -1.99724,4.425613 -3.3327,1.607163 z m 67.39528,-0.524118 c -0.95854,-2.441946 -0.97766,-2.447929 -7.82307,-2.447929 -5.39707,0 -6.86218,0.250094 -6.86218,1.171369 0,1.726663 -29.42053,2.227522 -31.60882,0.538112 -2.2046,-1.702 -1.80547,-4.372805 1.04608,-6.999857 2.38519,-2.197414 2.62132,-2.253236 4.09747,-0.968639 1.93455,1.683526 6.07004,1.766095 8.27121,0.165142 2.27487,-1.654556 45.34795,-1.850577 45.34795,-0.206373 0,0.966566 -10.12364,11.196105 -11.08021,11.196105 -0.23515,0 -0.85994,-1.101568 -1.38843,-2.44793 z M 122.56896,18.40944 102.21681,-1.1739959 l 27.35939,0 c 26.99635,0 27.3594,0.022147 27.3594,1.6690428 0,0.9179735 0.95463,2.5870164 2.12139,3.7089841 1.16677,1.1219676 2.1214,2.3775948 2.1214,2.790282 0,0.4126883 -3.91398,0.8549843 -8.69773,0.9828813 l -8.69773,0.2325394 0,5.3038473 c 0,4.879043 0.15292,5.324731 1.90926,5.564593 2.24658,0.306814 2.54399,2.943554 0.60944,5.403053 -1.72922,2.198442 -1.56825,6.450343 0.30594,8.081335 1.97058,1.714875 5.93021,1.738274 7.87421,0.04654 1.89652,-1.650433 3.30238,-0.847327 3.30238,1.886507 0,2.072597 -0.0369,2.086145 -1.71174,0.628629 -1.66687,-1.450572 -1.77369,-1.432547 -4.07505,0.687626 -1.86245,1.715824 -2.58317,1.965816 -3.40079,1.179595 -0.81761,-0.786221 -1.39023,-0.785822 -2.70191,0.0019 -0.91544,0.549753 -1.95898,0.999545 -2.31899,0.999545 -0.36001,0 -9.81303,-8.812546 -21.00672,-19.583435 z m 25.2022,12.076452 c -1.41074,-1.356573 -1.27439,-4.328438 0.25457,-5.54864 0.77669,-0.619848 1.27284,-2.408139 1.27284,-4.587783 0,-3.26613 -0.18165,-3.571982 -2.1214,-3.571982 -1.90926,0 -2.1214,-0.326391 -2.1214,-3.263906 l 0,-3.263906 4.03066,0.111121 c 2.21686,0.06112 3.17149,0.27025 2.12139,0.464741 -1.46196,0.270773 -1.90925,0.913816 -1.90925,2.744796 0,1.733521 0.40842,2.391038 1.48497,2.39067 1.2477,-4.26e-4 1.43975,0.626491 1.20192,3.923372 -0.20465,2.836947 0.0892,4.220939 1.0607,4.996278 2.7628,2.204871 1.11674,6.584411 -2.47476,6.584411 -0.98008,0 -2.24019,-0.440628 -2.80024,-0.979172 z m 4.92164,-2.692723 c 0,-1.631953 -0.42428,-2.039941 -2.1214,-2.039941 -1.69711,0 -2.12139,0.407988 -2.12139,2.039941 0,1.631953 0.42428,2.039942 2.12139,2.039942 1.69712,0 2.1214,-0.407989 2.1214,-2.039942 z m 38.35487,-1.38716 c -0.56005,-0.538544 -1.01828,-1.750269 -1.01828,-2.692722 0,-0.942453 0.45823,-2.154178 1.01828,-2.692722 1.44437,-1.388916 5.72621,-1.222854 6.31189,0.244793 0.41755,1.046322 3.82742,1.223964 23.4942,1.223964 l 23.00576,0 4.43702,-4.213653 c 3.45029,-3.276599 4.26767,-4.517947 3.67548,-5.581975 -0.58569,-1.052347 0.0714,-2.154404 2.84549,-4.77243 l 3.60703,-3.4041086 2.45588,2.4649597 2.45589,2.4649598 -3.34753,3.2981821 c -2.00767,1.978091 -3.90786,3.157618 -4.74751,2.946989 -0.87885,-0.22046 -3.23806,1.434919 -6.33764,4.446906 l -4.93762,4.7981 -23.05901,0 c -19.7141,0 -23.12986,0.177546 -23.54744,1.223964 -0.58568,1.467647 -4.86752,1.633709 -6.31189,0.244793 z m 4.76246,-2.500566 c 0.33772,-1.686281 -2.1119,-2.822545 -3.40477,-1.579316 -1.29287,1.243229 -0.11124,3.598791 1.64238,3.274043 0.81279,-0.150519 1.60587,-0.913146 1.76239,-1.694727 z m 69.04036,1.591201 c -1.01477,-1.038696 -1.84503,-2.249339 -1.84503,-2.690317 0,-1.492824 6.64295,-7.073115 7.87767,-6.617499 0.76191,0.281143 4.62242,-2.846522 10.44025,-8.4583638 l 9.2313,-8.9044601 14.43998,0.1810962 14.43997,0.1810962 -13.15266,0.2460311 -13.15267,0.2460312 -9.54192,9.1430941 c -7.28662,6.9820731 -9.42248,9.5049441 -9.0366,10.6740471 0.35384,1.072054 -0.46215,2.483671 -2.72227,4.709367 -3.75676,3.699555 -4.49122,3.835317 -6.97802,1.289877 z M 154.94572,24.261019 c -0.7724,-0.820715 -1.40436,-2.289473 -1.40436,-3.263906 0,-1.582052 0.45416,-1.771697 4.2428,-1.771697 2.33353,0 4.24279,0.338945 4.24279,0.753209 0,0.653695 -4.83251,5.774603 -5.44939,5.774603 -0.12512,0 -0.85945,-0.671494 -1.63184,-1.492209 z m 9.22674,-3.366124 c -0.81927,-1.274723 0.48966,-4.933385 1.765,-4.933385 0.78383,0 1.18084,0.96019 1.18084,2.855918 0,2.7723 -1.71976,3.985116 -2.94584,2.077467 z m 32.43327,-2.295424 c -3.00684,-1.979994 -3.1821,-2.335059 -3.1821,-6.446565 l 0,-4.3511606 -11.03127,0 c -9.23986,0 -11.03126,0.1987638 -11.03126,1.2239645 0,0.796548 -0.82971,1.2239651 -2.37597,1.2239651 -3.94697,0 -6.1177,-3.4494828 -2.80665,-4.4600184 1.80574,-0.551114 3.94595,-4.7711118 3.09287,-6.0984261 -0.38955,-0.6061127 15.26846,-0.8652264 52.28488,-0.8652264 l 52.84098,0 -4.179,4.0798824 c -2.29845,2.2439354 -4.55702,4.0798825 -5.01905,4.0798825 -0.46204,0 -2.0584,-1.1355157 -3.54748,-2.5233681 -2.20435,-2.0545046 -3.01009,-2.3676032 -4.33635,-1.6850603 -2.62506,1.3509438 -8.73419,8.1230484 -8.74863,9.6980384 -0.008,0.795405 -1.43923,3.008079 -3.18209,4.917054 l -3.16884,3.470864 -21.21398,-0.08421 -21.21397,-0.08421 -3.18209,-2.095406 z m 64.41108,1.648472 c -0.2677,-0.41653 0.98093,-2.135436 2.77475,-3.819793 1.79382,-1.684357 3.48051,-2.721671 3.74823,-2.305142 0.2677,0.416529 -0.98093,2.135435 -2.77475,3.819792 -1.79382,1.684357 -3.48052,2.721672 -3.74823,2.305143 z m -2.54567,-2.44793 c -0.26771,-0.416529 0.98092,-2.135436 2.77474,-3.819792 1.79382,-1.684358 3.48052,-2.721672 3.74823,-2.305143 0.2677,0.416529 -0.98093,2.135436 -2.77475,3.819793 -1.79382,1.684357 -3.48051,2.721671 -3.74822,2.305142 z m 10.19838,-4.871483 c -0.63467,-0.987475 13.37386,-14.3920382 14.62229,-13.9918725 0.52484,0.1682289 -2.44097,3.5555976 -6.59068,7.5274859 -4.14971,3.9718886 -7.76395,6.8808626 -8.03161,6.4643866 z m -2.54846,-2.452249 c -0.63433,-0.9869541 10.83614,-11.9381299 12.08495,-11.5378425 0.52475,0.1681989 -1.87015,3.0034775 -5.32198,6.3006191 -3.45184,3.2971417 -6.49517,5.6538924 -6.76297,5.2372234 z M 160.01292,2.8056743 c -1.7247,-2.3678188 -1.76819,-3.9796702 -0.10737,-3.9796702 0.70713,0 1.27284,0.7253124 1.27284,1.631953 0,1.1967655 0.56571,1.631953 2.1214,1.631953 1.55569,0 2.1214,-0.4351875 2.1214,-1.631953 0,-0.9066406 0.5657,-1.631953 1.27283,-1.631953 1.35576,0 1.68551,2.1918307 0.58125,3.8636014 -0.36609,0.5542261 -1.83933,1.233414 -3.27388,1.5093065 -2.1085,0.4055101 -2.87271,0.1385611 -3.98847,-1.3932377 z"
           id="path3177"
           inkscape:connector-curvature="0"
           inkscape:export-xdpi="158.92999"
           inkscape:export-ydpi="158.92999"
           inkscape:export-filename="C:\Users\Warrick\Documents\Warrick\Documents\Arduino\Things\Digital Media\PSD\path3277.png" />
        <flowRoot
           xml:space="preserve"
           id="flowRoot3179"
           style="font-size:40px;font-style:normal;font-variant:normal;font-weight:normal;font-stretch:normal;line-height:125%;letter-spacing:0px;word-spacing:0px;fill:#000000;fill-opacity:1;stroke:none;font-family:Rage Italic;-inkscape-font-specification:Rage Italic"
           transform="translate(8.4852813,15.909903)"><flowRegion
             id="flowRegion3181"><rect
               id="rect3183"
               width="79.549515"
               height="73.539108"
               x="5.3033009"
               y="20.187654" /></flowRegion><flowPara
             id="flowPara3185"
             style="font-size:18px;fill:#ffffff">Control</flowPara><flowPara
             style="font-size:18px;fill:#ffffff"
             id="flowPara3187">Through</flowPara><flowPara
             style="font-size:18px;fill:#ffffff"
             id="flowPara3189">Electrons</flowPara></flowRoot>      </g>
      <rect
         rx="6.2082028"
         ry="4.9829087"
         inkscape:transform-center-y="35.101318"
         inkscape:transform-center-x="-160.50292"
         transform="matrix(0.72510017,0.68864341,-0.72261756,0.69124805,0,0)"
         y="-80.058548"
         x="133.29115"
         height="62.949657"
         width="63.260345"
         id="rect3268"
         style="fill:none;stroke:#808080;stroke-width:1.19914472" />
      <path
         sodipodi:nodetypes="ccccccccccccc"
         inkscape:connector-curvature="0"
         id="path4133"
         d="m 145.0625,160.40625 0,0.5 0.0937,17 1.5,-0.0625 -0.0312,-15.5 12.84375,0.0625 -0.0312,15.34375 1.75,-0.0625 0.0937,-16.78125 0,-0.5 -0.5,0 -15.21875,0 z"
         style="font-size:medium;font-style:normal;font-variant:normal;font-weight:normal;font-stretch:normal;text-indent:0;text-align:start;text-decoration:none;line-height:normal;letter-spacing:normal;word-spacing:normal;text-transform:none;direction:ltr;block-progression:tb;writing-mode:lr-tb;text-anchor:start;baseline-shift:baseline;color:#000000;fill:#999999;fill-opacity:1;stroke:none;stroke-width:1px;marker:none;visibility:visible;display:inline;overflow:visible;enable-background:accumulate;font-family:Sans;-inkscape-font-specification:Sans" />
      <rect
         ry="0.17677669"
         rx="6.2082028"
         y="164.43744"
         x="139.74197"
         height="3.7123106"
         width="5.5684657"
         id="rect4169"
         style="fill:#999999;fill-opacity:1;stroke:#999999;stroke-width:0.99921262;stroke-miterlimit:4;stroke-dasharray:none" />
      <rect
         ry="0.17677669"
         rx="6.2082028"
         y="172.83434"
         x="139.5652"
         height="3.4471455"
         width="5.7452426"
         id="rect4171"
         style="fill:#999999;fill-opacity:1;stroke:#999999" />
      <rect
         ry="0.17677669"
         rx="6.2082028"
         y="163.9955"
         x="161.13196"
         height="3.6239223"
         width="6.7175145"
         id="rect4173"
         style="fill:#999999;fill-opacity:1;stroke:#999999" />
      <rect
         ry="0.17677669"
         rx="6.2082028"
         y="172.65755"
         x="161.22035"
         height="3.6239223"
         width="6.5407376"
         id="rect4175"
         style="fill:#999999;fill-opacity:1;stroke:#999999" />
      <rect
         ry="0.17677669"
         rx="6.2082028"
         y="126.47786"
         x="231.15625"
         height="7.625"
         width="4.9375"
         id="rect4177"
         style="fill:#999999;fill-opacity:1;stroke:#999999" />
      <rect
         ry="0.17677669"
         rx="6.2082028"
         y="77.040359"
         x="237.9375"
         height="4.5625"
         width="7.4375"
         id="rect4179"
         style="fill:#999999;fill-opacity:1;stroke:#999999" />
      <rect
         ry="0.17677669"
         rx="6.2082028"
         y="12.665359"
         x="178.375"
         height="4.25"
         width="7.6875"
         id="rect4181"
         style="fill:#999999;fill-opacity:1;stroke:#999999" />
      <rect
         ry="0.17677669"
         rx="6.2082028"
         y="12.477859"
         x="150.875"
         height="4.625"
         width="7.0625"
         id="rect4183"
         style="fill:#999999;fill-opacity:1;stroke:#999999" />
      <rect
         transform="matrix(0.70994831,-0.70425379,0.70994831,0.70425379,0,0)"
         ry="0.17490435"
         rx="6.1424484"
         y="173.49271"
         x="-17.651438"
         height="4.2668238"
         width="7.0495348"
         id="rect4185"
         style="fill:#999999;fill-opacity:1;stroke:#999999;stroke-width:0.98940843" />
      <rect
         transform="matrix(0.70710678,-0.70710678,0.70710678,0.70710678,0,0)"
         ry="0.17677669"
         rx="6.2082028"
         y="184.2628"
         x="-16.31896"
         height="4"
         width="7.125"
         id="rect4187"
         style="fill:#999999;fill-opacity:1;stroke:#999999;stroke-width:1" />
      <path
         d="m 73.097165,150.33949 c 0,0.56138 -0.435301,1.01647 -0.972272,1.01647 -0.536971,0 -0.972272,-0.45509 -0.972272,-1.01647 0,-0.56138 0.435301,-1.01646 0.972272,-1.01646 0.536971,0 0.972272,0.45508 0.972272,1.01646 z"
         sodipodi:ry="1.016466"
         sodipodi:rx="0.9722718"
         sodipodi:cy="150.33949"
         sodipodi:cx="72.124893"
         id="path4207"
         style="fill:none;stroke:#999999;stroke-width:0.99921262;stroke-miterlimit:4;stroke-dasharray:none"
         sodipodi:type="arc" />
      <path
         inkscape:connector-curvature="0"
         id="path4211"
         d="m 218.23083,44.759615 0,7.954951"
         style="fill:none;stroke:#999999;stroke-width:1px;stroke-linecap:butt;stroke-linejoin:miter;stroke-opacity:1" />
      <path
         inkscape:connector-curvature="0"
         id="path4213"
         d="m 228.48388,45.02478 0,7.778175"
         style="fill:#999999;stroke:#999999;stroke-width:1px;stroke-linecap:butt;stroke-linejoin:miter;stroke-opacity:1" />
      <path
         inkscape:connector-curvature="0"
         id="path4215"
         d="m 263.54885,11.966005 5.58771,5.587711"
         style="fill:none;stroke:#999999;stroke-width:1px;stroke-linecap:butt;stroke-linejoin:miter;stroke-opacity:1" />
      <path
         inkscape:connector-curvature="0"
         id="path4217"
         d="m 256.83201,17.814283 5.54429,5.544282"
         style="fill:none;stroke:#999999;stroke-width:1px;stroke-linecap:butt;stroke-linejoin:miter;stroke-opacity:1" />
      <rect
         transform="matrix(0.70710678,-0.70710678,0.70710678,0.70710678,0,0)"
         ry="0.14973252"
         rx="3.2879875"
         y="143.84068"
         x="-53.497368"
         height="1.2738822"
         width="2.7793791"
         id="rect4219"
         style="fill:#000000;fill-opacity:1;stroke:#000000;stroke-width:0.99921262;stroke-miterlimit:4;stroke-dasharray:none" />
      <rect
         transform="matrix(0.70710678,-0.70710678,0.70710678,0.70710678,0,0)"
         ry="0.14973252"
         rx="3.2879875"
         y="154.74782"
         x="-53.532101"
         height="1.2738822"
         width="2.7793791"
         id="rect4219-0"
         style="fill:#000000;fill-opacity:1;stroke:#000000;stroke-width:0.99921262;stroke-miterlimit:4;stroke-dasharray:none;display:inline" />
      <rect
         transform="matrix(0.70710678,-0.70710678,0.70710678,0.70710678,0,0)"
         ry="0.14973252"
         rx="3.2879875"
         y="149.79706"
         x="-53.503151"
         height="1.2738822"
         width="2.7793791"
         id="rect4219-9"
         style="fill:#000000;fill-opacity:1;stroke:#000000;stroke-width:0.99921262;stroke-miterlimit:4;stroke-dasharray:none;display:inline" />
      <rect
         transform="matrix(0.70710678,-0.70710678,0.70710678,0.70710678,0,0)"
         ry="0.14973252"
         rx="3.2879875"
         y="143.76445"
         x="-65.761375"
         height="1.2738822"
         width="2.7793791"
         id="rect4219-4"
         style="fill:#000000;fill-opacity:1;stroke:#000000;stroke-width:0.99921262;stroke-miterlimit:4;stroke-dasharray:none;display:inline" />
      <rect
         transform="matrix(0.70710678,-0.70710678,0.70710678,0.70710678,0,0)"
         ry="0.14973252"
         rx="3.2879875"
         y="154.67159"
         x="-65.796104"
         height="1.2738822"
         width="2.7793791"
         id="rect4219-0-7"
         style="fill:#000000;fill-opacity:1;stroke:#000000;stroke-width:0.99921262;stroke-miterlimit:4;stroke-dasharray:none;display:inline" />
      <rect
         transform="matrix(0.70710678,-0.70710678,0.70710678,0.70710678,0,0)"
         ry="0.14973252"
         rx="3.2879875"
         y="149.72083"
         x="-65.767159"
         height="1.2738822"
         width="2.7793791"
         id="rect4219-9-8"
         style="fill:#000000;fill-opacity:1;stroke:#000000;stroke-width:0.99921262;stroke-miterlimit:4;stroke-dasharray:none;display:inline" />
      <rect
         transform="matrix(0.69834026,0.71576594,-0.69834026,0.71576594,0,0)"
         ry="0.14973252"
         rx="3.2879875"
         y="50.666084"
         x="139.8027"
         height="11.229939"
         width="20.213888"
         id="rect4205"
         style="fill:none;stroke:#808080;stroke-width:0.84634811;stroke-miterlimit:4;stroke-dasharray:none" />
    </g>
  </g>
</svg>
