<?xml version="1.0" encoding="UTF-8" standalone="no"?>
<!-- Created with Inkscape (http://www.inkscape.org/) -->

<svg
   xmlns:dc="http://purl.org/dc/elements/1.1/"
   xmlns:cc="http://creativecommons.org/ns#"
   xmlns:rdf="http://www.w3.org/1999/02/22-rdf-syntax-ns#"
   xmlns:svg="http://www.w3.org/2000/svg"
   xmlns="http://www.w3.org/2000/svg"
   xmlns:sodipodi="http://sodipodi.sourceforge.net/DTD/sodipodi-0.dtd"
   xmlns:inkscape="http://www.inkscape.org/namespaces/inkscape"
   width="208.52362"
   height="62.149605"
   id="svg3910"
   version="1.1"
   inkscape:version="0.48.4 r9939"
   sodipodi:docname="Repo.svg">
  <defs
     id="defs3" />
  <sodipodi:namedview
     inkscape:document-units="mm"
     id="base"
     pagecolor="#ffffff"
     bordercolor="#666666"
     borderopacity="1.0"
     inkscape:pageopacity="0.0"
     inkscape:pageshadow="2"
     inkscape:zoom="4"
     inkscape:cx="140.52352"
     inkscape:cy="37.921812"
     inkscape:current-layer="layer1"
     showgrid="false"
     units="mm"
     width="279.4mm" />
  <metadata
     id="metadata4">
    <rdf:RDF>
      <cc:Work
         rdf:about="">
        <dc:format>image/svg+xml</dc:format>
        <dc:type
           rdf:resource="http://purl.org/dc/dcmitype/StillImage" />
        <dc:title></dc:title>
      </cc:Work>
    </rdf:RDF>
  </metadata>
  <g
     inkscape:label="Layer 1"
     inkscape:groupmode="layer"
     id="layer1"
     transform="translate(0,-990.21258)">
    <g
       id="g4575"
       onclick="location.href=&quot;https://github.com/ReeceM&quot;"
       transform="translate(-161,654.5)">
      <rect
         y="336.36838"
         x="221.12805"
         height="61.270866"
         width="148.53381"
         id="rect4035"
         style="fill:#3e4041;fill-opacity:1;stroke:none"
         onmouseover="evt.target.setAttribute('opacity', '0.7')"
         onmouseout="evt.target.setAttribute('opacity', '1')" />
      <g
         transform="matrix(0.11966713,0,0,0.11966713,161.14286,336.36218)"
         id="g4009">
        <polyline
           style="fill:#3e4041"
           points="0,512 512,512 512,0 0,0 0,512  "
           id="polyline4011" />
        <polyline
           style="opacity:0.10199998;fill:#010101"
           points="327,160 180,162 158,266 284,512 512,512 512,435 327,160  "
           id="polyline4013" />
        <path
           style="fill:#5da3c2"
           inkscape:connector-curvature="0"
           d="m 295.802,226.195 c -0.075,0.348 -0.166,0.789 -0.227,1.081 l -2.63,12.306 2.767,-12.965 0.09,-0.422"
           id="path4015" />
        <polyline
           style="fill:#5da3c2"
           points="217.02,234.431 215.568,239.573 217.02,234.433 217.02,234.431  "
           id="polyline4017" />
        <path
           style="fill:#ffffff"
           inkscape:connector-curvature="0"
           d="m 324.188,125 c 3.903,8.864 6.431,23.582 2.657,34.362 15.429,13.17 20.733,45.195 13.285,71.363 21.987,1.68 48.18,-0.804 65.086,5.943 -15.805,-2.031 -37.391,-6.018 -57.774,-4.63 -3.863,0.262 -9.585,-0.147 -9.304,5.286 23.597,1.854 47.045,3.871 66.42,9.916 -19.214,-3.14 -42.542,-7.917 -66.42,-8.586 -9.864,19.465 -29.716,29.029 -57.119,31.045 2.945,6.409 8.587,8.85 9.969,19.162 2.052,15.403 -3.219,37.965 1.981,48.231 2.495,4.918 6.56,5.051 9.304,9.255 -6.713,7.944 -23.351,-0.889 -25.246,-9.255 -3.246,-14.327 4.945,-36.539 -3.982,-46.25 0.632,15.625 -3.692,37.574 0.666,51.535 1.72,5.491 6.677,7.608 5.316,12.559 -31.196,3.168 -18.164,-40.378 -23.259,-66.075 -4.705,0.333 -2.64,7.048 -2.652,9.912 -0.138,25.1 5.135,59.521 -21.917,56.163 -0.795,-5.272 3.629,-7.067 5.31,-11.887 4.938,-14.122 -0.924,-35.163 1.341,-52.207 -10.326,7.784 1.082,34.96 -5.315,48.891 -3.688,8.02 -15.564,11.509 -24.575,7.93 1.172,-5.973 7.342,-5.007 9.955,-10.57 3.654,-7.758 0.026,-18.927 1.336,-30.392 -19.116,3.813 -33.938,-0.553 -41.189,-12.557 -3.244,-5.388 -4.052,-11.742 -7.975,-16.516 -3.901,-4.777 -10.138,-5.418 -11.948,-11.888 23.669,-5.695 24.575,24.356 45.835,25.102 6.515,0.235 9.902,-1.883 15.936,-3.298 1.686,-7.581 5.303,-13.23 10.625,-17.189 -26.446,-3.621 -48.29,-11.855 -58.448,-31.701 -24.047,1.184 -46.048,4.395 -66.427,9.242 18.496,-6.719 41.312,-9.127 65.763,-9.916 -1.44,-8.66 -14.072,-6.278 -21.917,-5.942 -14.573,0.642 -32.92,2.454 -44.504,4.63 16.796,-5.989 40.355,-5.24 63.105,-5.287 -6.959,-21.815 -4.548,-56.471 10.626,-69.378 -4.3,-10.836 -2.965,-28.563 2.657,-37.004 16.94,0.761 27.215,8.149 37.86,15.202 13.198,-3.756 27.077,-5.623 45.162,-4.629 7.609,0.423 15.52,3.84 21.246,3.299 5.623,-0.525 11.819,-6.833 17.272,-9.243 7.114,-3.137 13.128,-4.335 21.258,-4.628"
           id="path4019" />
      </g>
      <path
         inkscape:connector-curvature="0"
         id="path4563"
         d="m 222.46875,397.53137 0,-61.159"
         style="fill:none;stroke:#666666;stroke-width:1px;stroke-linecap:butt;stroke-linejoin:miter;stroke-opacity:1" />
      <path
         sodipodi:nodetypes="cccccssccccccccc"
         inkscape:connector-curvature="0"
         id="rect4569"
         d="m 251.25,354.78896 2.81954,-0.0332 3.17997,3.50066 3.96926,-3.5477 8.98548,15.51622 c 0.97389,-2.97496 0.4959,-4.88407 0.0479,-7.38507 -0.37216,-2.07767 -2.1971,-3.8224 -3.0975,-5.73042 -0.3546,-0.75142 0.22519,-1.52628 -0.0796,-2.29179 0.29,0.001 0.58995,0.13154 0.93826,0.89074 l 3.95746,4.0848 c 1.41847,-1.24799 2.67822,-2.70356 3.33683,-4.94522 0.34007,0.30125 0.56028,0.22187 0.48955,0.5818 l 17.5778,42.18241 -24.75,0 -17.01892,-27.99236 z"
         style="opacity:0.1;fill:#010101;fill-opacity:1;stroke:none" />
      <path
         sodipodi:nodetypes="cccccccccccccccc"
         inkscape:connector-curvature="0"
         id="rect4571"
         d="m 295,354.86218 7.42073,0.0442 c 0.6067,0.1806 1.20579,-0.0505 2.35225,2.00487 l 4.58624,4.44748 1.06066,-6.49654 8.39689,0 5.12652,6.0988 0.83969,-6.18719 7.55727,0.33484 7.02874,5.63597 2.78143,-5.47092 2.96807,0.13713 22.20823,41.45137 -60.48268,0 L 295,369.73898 z"
         style="opacity:0.1;fill:#010101;fill-opacity:1;stroke:none" />
      <g
         style="font-size:8px;font-style:normal;font-variant:normal;font-weight:normal;font-stretch:normal;line-height:125%;letter-spacing:0px;word-spacing:0px;fill:#ffffff;fill-opacity:1;stroke:none;font-family:Colonna MT;-inkscape-font-specification:Colonna MT"
         id="text4565">
        <path
           d="m 255.38672,360.90515 0,-0.5039 -2.03906,-2.90625 0,11.88281 c -1e-5,0.27344 -0.0957,0.50586 -0.28711,0.69726 -0.19141,0.19141 -0.42383,0.28711 -0.69727,0.28711 -0.27344,0 -0.50586,-0.0977 -0.69726,-0.29297 -0.19141,-0.19531 -0.28712,-0.42578 -0.28711,-0.6914 l 0,-14.58985 2.54296,0 2.42579,3.52735 2.49609,-3.52735 2.49609,0 0,14.58985 c -10e-6,0.27344 -0.0996,0.50586 -0.29882,0.69726 -0.19923,0.19141 -0.43556,0.28711 -0.70899,0.28711 -0.26563,0 -0.4961,-0.0977 -0.69141,-0.29297 -0.19532,-0.19531 -0.29297,-0.42578 -0.29296,-0.6914 l 0,-11.83594 -1.99219,2.8125 0,0.55078 c -1e-5,0.26564 -0.0977,0.4961 -0.29297,0.69141 -0.19532,0.19532 -0.42579,0.29297 -0.69141,0.29297 -0.27344,0 -0.50586,-0.0976 -0.69726,-0.29297 -0.19141,-0.19531 -0.28712,-0.42577 -0.28711,-0.69141 z"
           style="font-size:24px;fill:#ffffff;font-family:OCR A Extended;-inkscape-font-specification:OCR A Extended"
           id="path4590"
           inkscape:connector-curvature="0" />
        <path
           d="m 271.88672,362.89734 0,6.48047 c -1e-5,0.27344 -0.0977,0.50586 -0.29297,0.69726 -0.19532,0.19141 -0.42579,0.28711 -0.69141,0.28711 -0.28125,0 -0.51953,-0.0957 -0.71484,-0.28711 -0.19532,-0.1914 -0.29298,-0.42382 -0.29297,-0.69726 l 0,-6.48047 -3.96094,-5.01563 0,-2.08593 c 0,-0.28124 0.0957,-0.51952 0.28711,-0.71485 0.19141,-0.19529 0.42383,-0.29295 0.69727,-0.29297 0.27343,2e-5 0.50976,0.0996 0.70898,0.29883 0.19922,0.19924 0.29883,0.43556 0.29883,0.70899 l 0,1.34765 2.95313,3.8086 3,-3.78516 0,-1.37109 c -1e-5,-0.27343 0.0976,-0.50975 0.29296,-0.70899 0.19531,-0.1992 0.42578,-0.29881 0.69141,-0.29883 0.2578,2e-5 0.48632,0.0918 0.68555,0.27539 0.1992,0.18361 0.29881,0.42775 0.29883,0.73243 l 0,2.0625 z"
           style="font-size:24px;fill:#ffffff;font-family:OCR A Extended;-inkscape-font-specification:OCR A Extended"
           id="path4592"
           inkscape:connector-curvature="0" />
        <path
           d="m 294.90234,369.37781 0,-14.58985 6.96094,0 c 0.80468,2e-5 1.49804,0.29299 2.08008,0.87891 0.58202,0.58595 0.87303,1.28517 0.87305,2.09766 l 0,1.125 c -2e-5,0.82032 -0.28908,1.52149 -0.86719,2.10351 -0.57814,0.58204 -1.27345,0.87306 -2.08594,0.87305 l -1.25391,0 4.03125,6.91406 c 0.12499,0.20313 0.18749,0.40625 0.1875,0.60938 -1e-5,0.26562 -0.10157,0.49414 -0.30468,0.68554 -0.20314,0.19141 -0.43361,0.28711 -0.69141,0.28711 -0.39063,0 -0.68751,-0.17578 -0.89062,-0.52734 l -4.62891,-7.96875 -1.41797,0 0,7.51172 c 0,0.27344 -0.0996,0.50586 -0.29883,0.69726 -0.19922,0.19141 -0.43555,0.28711 -0.70898,0.28711 -0.27344,0 -0.50586,-0.0957 -0.69727,-0.28711 -0.19141,-0.1914 -0.28711,-0.42382 -0.28711,-0.69726 z m 1.96875,-9.48047 4.99219,0 c 0.27343,1e-5 0.50585,-0.0957 0.69727,-0.28711 0.19139,-0.1914 0.2871,-0.42382 0.28711,-0.69727 l 0,-1.14843 c -1e-5,-0.27343 -0.0957,-0.50585 -0.28711,-0.69727 -0.19142,-0.19139 -0.42384,-0.2871 -0.69727,-0.28711 l -4.99219,0 z"
           style="font-size:24px;fill:#ffffff;font-family:OCR A Extended;-inkscape-font-specification:OCR A Extended"
           id="path4594"
           inkscape:connector-curvature="0" />
        <path
           d="m 318.29297,356.78015 -6.96094,0 0,4.79297 3,0 c 0.26562,10e-6 0.49609,0.0977 0.69141,0.29297 0.1953,0.19532 0.29296,0.42579 0.29297,0.69141 -1e-5,0.28125 -0.0957,0.51953 -0.28711,0.71484 -0.19142,0.19532 -0.42384,0.29297 -0.69727,0.29297 l -3,0 0,4.82812 6.98438,0 c 0.26561,0 0.49608,0.0957 0.6914,0.28711 0.1953,0.19141 0.29296,0.42383 0.29297,0.69727 -10e-6,0.27344 -0.0996,0.50586 -0.29883,0.69726 -0.19923,0.19141 -0.43556,0.28711 -0.70898,0.28711 l -8.92969,0 0,-15.57422 8.92969,0 c 0.27342,2e-5 0.50975,0.0996 0.70898,0.29883 0.19921,0.19924 0.29882,0.43556 0.29883,0.70899 -10e-6,0.26564 -0.0996,0.4961 -0.29883,0.6914 -0.19923,0.19533 -0.43556,0.29298 -0.70898,0.29297 z"
           style="font-size:24px;fill:#ffffff;font-family:OCR A Extended;-inkscape-font-specification:OCR A Extended"
           id="path4596"
           inkscape:connector-curvature="0" />
        <path
           d="m 323.84766,369.37781 0,-14.58985 6.98437,0 c 0.80468,2e-5 1.49804,0.29299 2.08008,0.87891 0.58202,0.58595 0.87303,1.28517 0.87305,2.09766 l 0,3.6914 c -2e-5,0.81251 -0.28908,1.50782 -0.86719,2.08594 -0.57814,0.57813 -1.27345,0.86719 -2.08594,0.86719 l -4.99219,0 0,4.96875 c 0,0.27344 -0.0957,0.50586 -0.28711,0.69726 -0.19141,0.19141 -0.42383,0.28711 -0.69726,0.28711 -0.28125,0 -0.51954,-0.0957 -0.71485,-0.28711 -0.19531,-0.1914 -0.29297,-0.42382 -0.29296,-0.69726 z m 1.99218,-6.9375 4.99219,0 c 0.26562,10e-6 0.49609,-0.0957 0.69141,-0.28711 0.1953,-0.1914 0.29296,-0.42382 0.29297,-0.69727 l 0,-3.6914 c -1e-5,-0.27343 -0.0977,-0.50585 -0.29297,-0.69727 -0.19532,-0.19139 -0.42579,-0.2871 -0.69141,-0.28711 l -4.99219,0 z"
           style="font-size:24px;fill:#ffffff;font-family:OCR A Extended;-inkscape-font-specification:OCR A Extended"
           id="path4598"
           inkscape:connector-curvature="0" />
        <path
           d="m 345.62109,356.22937 2.16797,4.41797 c 0.30468,0.60157 0.45702,1.25391 0.45703,1.95703 -10e-6,0.68751 -0.15235,1.33594 -0.45703,1.94531 l -2.16797,4.3711 c -0.46094,0.96093 -1.24219,1.4414 -2.34375,1.4414 -0.52344,0 -0.99414,-0.13672 -1.41211,-0.41015 -0.41797,-0.27344 -0.73242,-0.61719 -0.94336,-1.03125 l -2.17968,-4.3711 c -0.28907,-0.5703 -0.4336,-1.21874 -0.4336,-1.94531 0,-0.72655 0.14453,-1.3789 0.4336,-1.95703 l 2.17968,-4.41797 c 0.49219,-0.96092 1.27734,-1.44139 2.35547,-1.44141 1.09375,2e-5 1.87499,0.48049 2.34375,1.44141 z m -3,0.98438 -2.03906,4.14843 c -0.1875,0.41407 -0.28125,0.82032 -0.28125,1.21875 0,0.4297 0.0937,0.83985 0.28125,1.23047 l 2.09766,4.19531 c 0.10937,0.25782 0.30858,0.38672 0.59765,0.38672 0.25,0 0.4414,-0.1289 0.57422,-0.38672 l 2.10938,-4.19531 c 0.1953,-0.41405 0.29296,-0.82421 0.29297,-1.23047 -1e-5,-0.42968 -0.0977,-0.83593 -0.29297,-1.21875 l -2.0625,-4.14843 c -0.13282,-0.30468 -0.33985,-0.45702 -0.6211,-0.45704 -0.28125,2e-5 -0.5,0.15236 -0.65625,0.45704 z"
           style="font-size:24px;fill:#ffffff;font-family:OCR A Extended;-inkscape-font-specification:OCR A Extended"
           id="path4600"
           inkscape:connector-curvature="0" />
      </g>
    </g>
  </g>
</svg>
