<?xml version="1.0" encoding="utf-8"?>
<svg viewBox="0 0 277 277" xmlns="http://www.w3.org/2000/svg">
  <g transform="matrix(1, 0, 0, 1, 0, 1)">
    <title>shadow</title>
    <rect x="25.973" y="45.846" width="227.054" height="84.92" style="stroke-width: 0px; fill: rgba(0, 0, 0, 0.11);" rx="42.46" ry="42.46">
      <title>settings_logo</title>
    </rect>
    <rect x="25.973" y="149.192" width="227.054" height="84.92" style="stroke-width: 0px; fill: rgba(0, 0, 0, 0.11);" rx="42.46" ry="42.46">
      <title>settings_logo</title>
    </rect>
  </g>
  <rect x="24.973" y="44.367" width="227.054" height="84.92" style="fill: rgb(216, 216, 216); stroke: rgb(115, 115, 115);" rx="42.46" ry="42.46">
    <title>settings_logo</title>
  </rect>
  <circle style="stroke-width: 0px; fill: rgb(224, 241, 255);" cx="67.433" cy="86.827" r="42.46">
    <title>settings_logo</title>
  </circle>
  <rect x="24.973" y="147.713" width="227.054" height="84.92" style="fill: rgb(216, 216, 216); stroke: rgb(115, 115, 115);" rx="42.46" ry="42.46">
    <title>settings_logo</title>
  </rect>
  <circle style="stroke-width: 0px; fill: rgb(0, 255, 136);" cx="209.567" cy="190.173" r="42.46">
    <title>settings_logo</title>
  </circle>
  <path d="M 277.364 134.639 H 279.378 V 163.487 H 308.225 V 165.501 H 279.378 V 194.348 H 277.364 V 165.501 H 248.516 V 163.487 H 277.364 Z" style="fill: rgb(0, 101, 179);" transform="matrix(0.707107, 0.707107, -0.707107, 0.707107, -13.090225, -226.325241)">
    <title>settings_logo</title>
  </path>
  <path d="M 60.983 201.189 C 59.523 201.189 58.116 200.956 56.763 200.489 C 55.41 200.029 54.35 199.402 53.583 198.609 C 53.323 198.396 53.193 198.109 53.193 197.749 C 53.193 197.536 53.256 197.349 53.383 197.189 C 53.516 197.029 53.66 196.949 53.813 196.949 C 54.013 196.949 54.24 197.049 54.493 197.249 C 56.353 198.789 58.516 199.559 60.983 199.559 C 62.776 199.559 64.163 199.199 65.143 198.479 C 66.116 197.759 66.603 196.736 66.603 195.409 C 66.603 194.642 66.366 194.022 65.893 193.549 C 65.42 193.076 64.816 192.706 64.083 192.439 C 63.356 192.172 62.38 191.902 61.153 191.629 C 59.54 191.269 58.233 190.902 57.233 190.529 C 56.24 190.156 55.396 189.589 54.703 188.829 C 54.016 188.069 53.673 187.049 53.673 185.769 C 53.673 184.602 53.983 183.569 54.603 182.669 C 55.223 181.776 56.096 181.082 57.223 180.589 C 58.343 180.096 59.636 179.849 61.103 179.849 C 62.463 179.849 63.743 180.069 64.943 180.509 C 66.15 180.956 67.146 181.592 67.933 182.419 C 68.193 182.679 68.323 182.966 68.323 183.279 C 68.323 183.492 68.26 183.679 68.133 183.839 C 68 183.999 67.856 184.079 67.703 184.079 C 67.503 184.079 67.276 183.979 67.023 183.779 C 65.956 182.912 64.993 182.312 64.133 181.979 C 63.273 181.639 62.263 181.469 61.103 181.469 C 59.343 181.469 57.97 181.846 56.983 182.599 C 55.996 183.346 55.503 184.392 55.503 185.739 C 55.503 186.546 55.72 187.199 56.153 187.699 C 56.586 188.206 57.153 188.606 57.853 188.899 C 58.553 189.199 59.456 189.486 60.563 189.759 L 61.333 189.939 C 62.933 190.332 64.196 190.696 65.123 191.029 C 66.05 191.369 66.833 191.889 67.473 192.589 C 68.12 193.289 68.443 194.229 68.443 195.409 C 68.443 196.536 68.13 197.539 67.503 198.419 C 66.883 199.299 66.006 199.979 64.873 200.459 C 63.74 200.946 62.443 201.189 60.983 201.189 ZM 83.21 197.869 C 83.39 197.869 83.544 197.942 83.67 198.089 C 83.797 198.242 83.86 198.416 83.86 198.609 C 83.86 199.042 83.524 199.466 82.85 199.879 C 81.43 200.732 79.93 201.159 78.35 201.159 C 76.164 201.159 74.437 200.496 73.17 199.169 C 71.91 197.849 71.28 196.036 71.28 193.729 C 71.28 192.249 71.56 190.942 72.12 189.809 C 72.687 188.669 73.477 187.789 74.49 187.169 C 75.51 186.549 76.68 186.239 78 186.239 C 79.854 186.239 81.32 186.836 82.4 188.029 C 83.474 189.222 84.01 190.866 84.01 192.959 C 84.01 193.312 83.93 193.572 83.77 193.739 C 83.61 193.906 83.354 193.989 83 193.989 L 73.15 193.989 C 73.204 195.809 73.677 197.192 74.57 198.139 C 75.457 199.086 76.71 199.559 78.33 199.559 C 79.177 199.559 79.887 199.446 80.46 199.219 C 81.027 198.992 81.637 198.692 82.29 198.319 C 82.724 198.019 83.03 197.869 83.21 197.869 Z M 78 187.719 C 76.62 187.719 75.514 188.152 74.68 189.019 C 73.854 189.886 73.36 191.099 73.2 192.659 L 82.35 192.659 C 82.31 191.079 81.917 189.862 81.17 189.009 C 80.417 188.149 79.36 187.719 78 187.719 ZM 93.98 199.589 C 94.534 199.649 94.81 199.906 94.81 200.359 C 94.81 200.592 94.724 200.779 94.55 200.919 C 94.37 201.059 94.084 201.119 93.69 201.099 L 92.86 201.039 C 91.36 200.939 90.25 200.479 89.53 199.659 C 88.81 198.839 88.45 197.592 88.45 195.919 L 88.45 188.039 L 86.2 188.039 C 85.96 188.039 85.774 187.976 85.64 187.849 C 85.5 187.722 85.43 187.549 85.43 187.329 C 85.43 187.116 85.5 186.939 85.64 186.799 C 85.774 186.659 85.96 186.589 86.2 186.589 L 88.45 186.589 L 88.45 182.919 C 88.45 182.626 88.53 182.399 88.69 182.239 C 88.844 182.086 89.06 182.009 89.34 182.009 C 89.614 182.009 89.834 182.086 90 182.239 C 90.167 182.399 90.25 182.626 90.25 182.919 L 90.25 186.589 L 93.84 186.589 C 94.094 186.589 94.29 186.659 94.43 186.799 C 94.564 186.939 94.63 187.116 94.63 187.329 C 94.63 187.549 94.564 187.722 94.43 187.849 C 94.29 187.976 94.094 188.039 93.84 188.039 L 90.25 188.039 L 90.25 196.009 C 90.25 197.229 90.487 198.102 90.96 198.629 C 91.434 199.149 92.174 199.449 93.18 199.529 L 93.98 199.589 ZM 103.896 199.589 C 104.45 199.649 104.726 199.906 104.726 200.359 C 104.726 200.592 104.64 200.779 104.466 200.919 C 104.286 201.059 104 201.119 103.606 201.099 L 102.776 201.039 C 101.276 200.939 100.166 200.479 99.446 199.659 C 98.726 198.839 98.366 197.592 98.366 195.919 L 98.366 188.039 L 96.116 188.039 C 95.876 188.039 95.69 187.976 95.556 187.849 C 95.416 187.722 95.346 187.549 95.346 187.329 C 95.346 187.116 95.416 186.939 95.556 186.799 C 95.69 186.659 95.876 186.589 96.116 186.589 L 98.366 186.589 L 98.366 182.919 C 98.366 182.626 98.446 182.399 98.606 182.239 C 98.76 182.086 98.976 182.009 99.256 182.009 C 99.53 182.009 99.75 182.086 99.916 182.239 C 100.083 182.399 100.166 182.626 100.166 182.919 L 100.166 186.589 L 103.756 186.589 C 104.01 186.589 104.206 186.659 104.346 186.799 C 104.48 186.939 104.546 187.116 104.546 187.329 C 104.546 187.549 104.48 187.722 104.346 187.849 C 104.206 187.976 104.01 188.039 103.756 188.039 L 100.166 188.039 L 100.166 196.009 C 100.166 197.229 100.403 198.102 100.876 198.629 C 101.35 199.149 102.09 199.449 103.096 199.529 L 103.896 199.589 ZM 108.255 201.099 C 107.975 201.099 107.752 201.019 107.585 200.859 C 107.419 200.699 107.335 200.472 107.335 200.179 L 107.335 187.219 C 107.335 186.919 107.419 186.689 107.585 186.529 C 107.752 186.376 107.975 186.299 108.255 186.299 C 108.529 186.299 108.745 186.376 108.905 186.529 C 109.059 186.689 109.135 186.919 109.135 187.219 L 109.135 200.179 C 109.135 200.472 109.059 200.699 108.905 200.859 C 108.745 201.019 108.529 201.099 108.255 201.099 Z M 108.255 182.949 C 107.855 182.949 107.532 182.832 107.285 182.599 C 107.039 182.359 106.915 182.052 106.915 181.679 C 106.915 181.286 107.039 180.969 107.285 180.729 C 107.532 180.496 107.855 180.379 108.255 180.379 C 108.649 180.379 108.969 180.496 109.215 180.729 C 109.462 180.969 109.585 181.286 109.585 181.679 C 109.585 182.052 109.462 182.359 109.215 182.599 C 108.969 182.832 108.649 182.949 108.255 182.949 ZM 120.627 186.239 C 124.08 186.239 125.807 188.092 125.807 191.799 L 125.807 200.179 C 125.807 200.452 125.727 200.676 125.567 200.849 C 125.407 201.016 125.19 201.099 124.917 201.099 C 124.637 201.099 124.413 201.016 124.247 200.849 C 124.08 200.676 123.997 200.452 123.997 200.179 L 123.997 191.919 C 123.997 190.499 123.71 189.462 123.137 188.809 C 122.563 188.162 121.657 187.839 120.417 187.839 C 118.997 187.839 117.857 188.272 116.997 189.139 C 116.137 190.006 115.707 191.169 115.707 192.629 L 115.707 200.179 C 115.707 200.452 115.63 200.676 115.477 200.849 C 115.317 201.016 115.1 201.099 114.827 201.099 C 114.547 201.099 114.323 201.016 114.157 200.849 C 113.99 200.676 113.907 200.452 113.907 200.179 L 113.907 187.219 C 113.907 186.939 113.99 186.716 114.157 186.549 C 114.323 186.382 114.547 186.299 114.827 186.299 C 115.08 186.299 115.287 186.376 115.447 186.529 C 115.6 186.689 115.677 186.909 115.677 187.189 L 115.677 189.049 C 116.13 188.142 116.787 187.446 117.647 186.959 C 118.507 186.479 119.5 186.239 120.627 186.239 ZM 141.932 186.299 C 142.212 186.299 142.436 186.382 142.602 186.549 C 142.769 186.716 142.852 186.939 142.852 187.219 L 142.852 200.119 C 142.852 202.212 142.336 203.796 141.302 204.869 C 140.262 205.949 138.726 206.489 136.692 206.489 C 135.632 206.489 134.682 206.382 133.842 206.169 C 133.002 205.962 132.216 205.642 131.482 205.209 C 130.776 204.776 130.422 204.352 130.422 203.939 C 130.422 203.719 130.486 203.542 130.612 203.409 C 130.739 203.269 130.902 203.199 131.102 203.199 C 131.222 203.199 131.386 203.252 131.592 203.359 C 131.799 203.472 131.942 203.546 132.022 203.579 C 132.689 203.959 133.379 204.272 134.092 204.519 C 134.806 204.766 135.682 204.889 136.722 204.889 C 138.162 204.889 139.249 204.502 139.982 203.729 C 140.716 202.962 141.082 201.819 141.082 200.299 L 141.082 197.489 C 140.662 198.456 140.026 199.199 139.172 199.719 C 138.312 200.246 137.269 200.509 136.042 200.509 C 134.782 200.509 133.662 200.212 132.682 199.619 C 131.709 199.026 130.949 198.186 130.402 197.099 C 129.862 196.012 129.592 194.769 129.592 193.369 C 129.592 191.969 129.862 190.726 130.402 189.639 C 130.949 188.552 131.709 187.716 132.682 187.129 C 133.662 186.536 134.782 186.239 136.042 186.239 C 137.249 186.239 138.276 186.489 139.122 186.989 C 139.969 187.496 140.612 188.232 141.052 189.199 L 141.052 187.219 C 141.052 186.939 141.129 186.716 141.282 186.549 C 141.442 186.382 141.659 186.299 141.932 186.299 Z M 136.282 198.909 C 137.782 198.909 138.952 198.416 139.792 197.429 C 140.632 196.442 141.052 195.089 141.052 193.369 C 141.052 191.656 140.626 190.299 139.772 189.299 C 138.926 188.306 137.762 187.809 136.282 187.809 C 134.782 187.809 133.609 188.302 132.762 189.289 C 131.909 190.276 131.482 191.636 131.482 193.369 C 131.482 195.109 131.909 196.466 132.762 197.439 C 133.609 198.419 134.782 198.909 136.282 198.909 ZM 152.241 201.159 C 151.408 201.159 150.591 201.046 149.791 200.819 C 148.991 200.592 148.288 200.279 147.681 199.879 C 147.301 199.626 147.038 199.406 146.891 199.219 C 146.745 199.032 146.671 198.819 146.671 198.579 C 146.671 198.386 146.735 198.219 146.861 198.079 C 146.995 197.939 147.148 197.869 147.321 197.869 C 147.501 197.869 147.808 198.019 148.241 198.319 C 148.815 198.692 149.401 198.996 150.001 199.229 C 150.601 199.469 151.355 199.589 152.261 199.589 C 153.428 199.589 154.338 199.376 154.991 198.949 C 155.638 198.529 155.961 197.922 155.961 197.129 C 155.961 196.656 155.845 196.266 155.611 195.959 C 155.371 195.652 154.978 195.386 154.431 195.159 C 153.878 194.932 153.088 194.712 152.061 194.499 C 150.301 194.106 149.051 193.596 148.311 192.969 C 147.571 192.349 147.201 191.516 147.201 190.469 C 147.201 189.209 147.695 188.189 148.681 187.409 C 149.668 186.629 150.951 186.239 152.531 186.239 C 153.305 186.239 154.041 186.336 154.741 186.529 C 155.441 186.729 156.048 187.016 156.561 187.389 C 157.248 187.862 157.591 188.326 157.591 188.779 C 157.591 188.979 157.528 189.152 157.401 189.299 C 157.275 189.446 157.121 189.519 156.941 189.519 C 156.748 189.519 156.441 189.362 156.021 189.049 C 155.488 188.676 154.961 188.376 154.441 188.149 C 153.921 187.922 153.255 187.809 152.441 187.809 C 151.415 187.809 150.598 188.039 149.991 188.499 C 149.378 188.966 149.071 189.592 149.071 190.379 C 149.071 190.832 149.175 191.209 149.381 191.509 C 149.588 191.802 149.941 192.062 150.441 192.289 C 150.948 192.516 151.675 192.739 152.621 192.959 C 153.981 193.272 155.028 193.606 155.761 193.959 C 156.488 194.319 157.011 194.746 157.331 195.239 C 157.645 195.732 157.801 196.362 157.801 197.129 C 157.801 198.336 157.295 199.309 156.281 200.049 C 155.261 200.789 153.915 201.159 152.241 201.159 Z" transform="matrix(1, 0, 0, 1, 0, 0)" style="fill: rgb(51, 51, 51); white-space: pre;"/>
  <path d="M 124.17 97.288 C 123.917 97.288 123.693 97.208 123.5 97.048 C 123.313 96.895 123.22 96.698 123.22 96.458 L 123.22 77.218 C 123.22 76.945 123.307 76.718 123.48 76.538 C 123.647 76.358 123.867 76.268 124.14 76.268 C 124.44 76.268 124.667 76.355 124.82 76.528 C 124.98 76.695 125.06 76.925 125.06 77.218 L 125.06 95.688 L 135.18 95.688 C 135.44 95.688 135.643 95.758 135.79 95.898 C 135.937 96.038 136.01 96.235 136.01 96.488 C 136.01 96.748 135.937 96.945 135.79 97.078 C 135.643 97.218 135.44 97.288 135.18 97.288 L 124.17 97.288 ZM 144.357 82.578 C 146.097 82.578 147.393 83.031 148.247 83.938 C 149.107 84.845 149.537 86.215 149.537 88.048 L 149.537 96.488 C 149.537 96.768 149.457 96.991 149.297 97.158 C 149.143 97.325 148.927 97.408 148.647 97.408 C 148.373 97.408 148.157 97.325 147.997 97.158 C 147.843 96.991 147.767 96.768 147.767 96.488 L 147.767 94.708 C 147.347 95.601 146.743 96.288 145.957 96.768 C 145.17 97.255 144.263 97.498 143.237 97.498 C 142.31 97.498 141.46 97.308 140.687 96.928 C 139.92 96.555 139.313 96.035 138.867 95.368 C 138.42 94.695 138.197 93.955 138.197 93.148 C 138.197 92.081 138.473 91.251 139.027 90.658 C 139.58 90.065 140.5 89.641 141.787 89.388 C 143.067 89.128 144.85 88.998 147.137 88.998 L 147.767 88.998 L 147.767 87.908 C 147.767 86.601 147.5 85.648 146.967 85.048 C 146.433 84.448 145.593 84.148 144.447 84.148 C 142.987 84.148 141.597 84.531 140.277 85.298 C 140.217 85.338 140.063 85.441 139.817 85.608 C 139.57 85.775 139.357 85.858 139.177 85.858 C 138.983 85.858 138.82 85.785 138.687 85.638 C 138.56 85.491 138.497 85.308 138.497 85.088 C 138.497 84.655 138.843 84.231 139.537 83.818 C 140.223 83.425 140.993 83.118 141.847 82.898 C 142.693 82.685 143.53 82.578 144.357 82.578 Z M 143.377 95.928 C 144.663 95.928 145.717 95.495 146.537 94.628 C 147.357 93.755 147.767 92.648 147.767 91.308 L 147.767 90.328 L 147.197 90.328 C 145.303 90.328 143.853 90.408 142.847 90.568 C 141.84 90.728 141.13 90.998 140.717 91.378 C 140.303 91.765 140.097 92.325 140.097 93.058 C 140.097 93.885 140.413 94.568 141.047 95.108 C 141.673 95.655 142.45 95.928 143.377 95.928 ZM 160.936 82.638 C 161.31 82.618 161.576 82.668 161.736 82.788 C 161.89 82.901 161.966 83.098 161.966 83.378 C 161.966 83.871 161.673 84.148 161.086 84.208 L 160.196 84.298 C 158.796 84.431 157.753 84.935 157.066 85.808 C 156.386 86.675 156.046 87.688 156.046 88.848 L 156.046 96.518 C 156.046 96.811 155.97 97.038 155.816 97.198 C 155.656 97.358 155.44 97.438 155.166 97.438 C 154.886 97.438 154.663 97.358 154.496 97.198 C 154.33 97.038 154.246 96.811 154.246 96.518 L 154.246 83.558 C 154.246 83.258 154.33 83.028 154.496 82.868 C 154.663 82.715 154.886 82.638 155.166 82.638 C 155.42 82.638 155.626 82.715 155.786 82.868 C 155.94 83.028 156.016 83.248 156.016 83.528 L 156.016 85.448 C 156.83 83.748 158.33 82.821 160.516 82.668 L 160.936 82.638 ZM 169.813 82.578 C 171.553 82.578 172.849 83.031 173.703 83.938 C 174.563 84.845 174.993 86.215 174.993 88.048 L 174.993 96.488 C 174.993 96.768 174.913 96.991 174.753 97.158 C 174.599 97.325 174.383 97.408 174.103 97.408 C 173.829 97.408 173.613 97.325 173.453 97.158 C 173.299 96.991 173.223 96.768 173.223 96.488 L 173.223 94.708 C 172.803 95.601 172.199 96.288 171.413 96.768 C 170.626 97.255 169.719 97.498 168.693 97.498 C 167.766 97.498 166.916 97.308 166.143 96.928 C 165.376 96.555 164.769 96.035 164.323 95.368 C 163.876 94.695 163.653 93.955 163.653 93.148 C 163.653 92.081 163.929 91.251 164.483 90.658 C 165.036 90.065 165.956 89.641 167.243 89.388 C 168.523 89.128 170.306 88.998 172.593 88.998 L 173.223 88.998 L 173.223 87.908 C 173.223 86.601 172.956 85.648 172.423 85.048 C 171.889 84.448 171.049 84.148 169.903 84.148 C 168.443 84.148 167.053 84.531 165.733 85.298 C 165.673 85.338 165.519 85.441 165.273 85.608 C 165.026 85.775 164.813 85.858 164.633 85.858 C 164.439 85.858 164.276 85.785 164.143 85.638 C 164.016 85.491 163.953 85.308 163.953 85.088 C 163.953 84.655 164.299 84.231 164.993 83.818 C 165.679 83.425 166.449 83.118 167.303 82.898 C 168.149 82.685 168.986 82.578 169.813 82.578 Z M 168.833 95.928 C 170.119 95.928 171.173 95.495 171.993 94.628 C 172.813 93.755 173.223 92.648 173.223 91.308 L 173.223 90.328 L 172.653 90.328 C 170.759 90.328 169.309 90.408 168.303 90.568 C 167.296 90.728 166.586 90.998 166.173 91.378 C 165.759 91.765 165.553 92.325 165.553 93.058 C 165.553 93.885 165.869 94.568 166.503 95.108 C 167.129 95.655 167.906 95.928 168.833 95.928 ZM 190.242 83.168 C 190.396 82.815 190.652 82.638 191.012 82.638 C 191.226 82.638 191.422 82.715 191.602 82.868 C 191.776 83.028 191.862 83.218 191.862 83.438 C 191.862 83.571 191.832 83.698 191.772 83.818 L 185.912 96.698 C 185.819 96.911 185.676 97.078 185.482 97.198 C 185.296 97.318 185.096 97.378 184.882 97.378 C 184.642 97.378 184.429 97.318 184.242 97.198 C 184.056 97.078 183.912 96.911 183.812 96.698 L 177.922 83.818 C 177.862 83.698 177.832 83.581 177.832 83.468 C 177.832 83.228 177.936 83.025 178.142 82.858 C 178.349 82.691 178.572 82.608 178.812 82.608 C 179.186 82.608 179.442 82.785 179.582 83.138 L 184.912 95.098 L 190.242 83.168 ZM 205.631 94.208 C 205.811 94.208 205.964 94.281 206.091 94.428 C 206.217 94.581 206.281 94.755 206.281 94.948 C 206.281 95.381 205.944 95.805 205.271 96.218 C 203.851 97.071 202.351 97.498 200.771 97.498 C 198.584 97.498 196.857 96.835 195.591 95.508 C 194.331 94.188 193.701 92.375 193.701 90.068 C 193.701 88.588 193.981 87.281 194.541 86.148 C 195.107 85.008 195.897 84.128 196.911 83.508 C 197.931 82.888 199.101 82.578 200.421 82.578 C 202.274 82.578 203.741 83.175 204.821 84.368 C 205.894 85.561 206.431 87.205 206.431 89.298 C 206.431 89.651 206.351 89.911 206.191 90.078 C 206.031 90.245 205.774 90.328 205.421 90.328 L 195.571 90.328 C 195.624 92.148 196.097 93.531 196.991 94.478 C 197.877 95.425 199.131 95.898 200.751 95.898 C 201.597 95.898 202.307 95.785 202.881 95.558 C 203.447 95.331 204.057 95.031 204.711 94.658 C 205.144 94.358 205.451 94.208 205.631 94.208 Z M 200.421 84.058 C 199.041 84.058 197.934 84.491 197.101 85.358 C 196.274 86.225 195.781 87.438 195.621 88.998 L 204.771 88.998 C 204.731 87.418 204.337 86.201 203.591 85.348 C 202.837 84.488 201.781 84.058 200.421 84.058 ZM 211.11 97.438 C 210.83 97.438 210.607 97.358 210.44 97.198 C 210.274 97.038 210.19 96.811 210.19 96.518 L 210.19 77.188 C 210.19 76.895 210.274 76.668 210.44 76.508 C 210.607 76.348 210.83 76.268 211.11 76.268 C 211.364 76.268 211.574 76.348 211.74 76.508 C 211.907 76.668 211.99 76.895 211.99 77.188 L 211.99 96.518 C 211.99 96.811 211.907 97.038 211.74 97.198 C 211.574 97.358 211.364 97.438 211.11 97.438 Z" transform="matrix(1, 0, 0, 1, 0, 0)" style="fill: rgb(51, 51, 51); white-space: pre;"/>
  <path style="fill: none; stroke-width: 2px; stroke: rgb(0, 112, 60);" d="M 239.275 169.931 L 197.734 210.415 L 179.858 192.539">
    <title>settings_logo</title>
  </path>
</svg>
